<svg xmlns="http://www.w3.org/2000/svg" xmlns:xlink="http://www.w3.org/1999/xlink" width="500" zoomAndPan="magnify" viewBox="0 0 375 374.999991" height="500" preserveAspectRatio="xMidYMid meet" version="1.0"><path fill="#8fd6ff" d="M 298.015625 339.0625 C 291.640625 343.703125 244.835938 337.40625 237.339844 339.855469 C 229.839844 342.300781 195.746094 374.976562 187.855469 374.984375 C 179.96875 374.992188 145.800781 342.390625 138.296875 339.960938 C 130.796875 337.53125 84.003906 343.925781 77.617188 339.296875 C 71.230469 334.667969 62.753906 288.207031 58.113281 281.832031 C 53.46875 275.457031 11.851562 253.128906 9.40625 245.628906 C 6.960938 238.128906 27.410156 195.566406 27.402344 187.675781 C 27.394531 179.789062 6.851562 137.261719 9.28125 129.757812 C 11.710938 122.253906 53.277344 99.835938 57.90625 93.449219 C 62.535156 87.058594 70.910156 40.585938 77.289062 35.941406 C 83.667969 31.296875 130.46875 37.59375 137.96875 35.148438 C 145.46875 32.703125 179.5625 0.0273438 187.449219 0.0195312 C 195.339844 0.0078125 229.503906 32.609375 237.007812 35.042969 C 244.511719 37.472656 291.300781 31.078125 297.691406 35.703125 C 304.074219 40.335938 312.554688 86.792969 317.195312 93.167969 C 321.835938 99.546875 363.453125 121.875 365.894531 129.375 C 368.34375 136.875 347.894531 179.441406 347.902344 187.332031 C 347.910156 195.21875 368.453125 237.738281 366.023438 245.25 C 363.59375 252.753906 322.027344 275.167969 317.398438 281.558594 C 312.769531 287.941406 304.394531 334.417969 298.015625 339.0625 Z M 298.015625 339.0625 " fill-opacity="1" fill-rule="nonzero"/><path fill="#00a1ff" d="M 187.652344 308.710938 C 118.535156 308.710938 62.503906 254.441406 62.503906 187.5 C 62.503906 120.558594 118.535156 66.289062 187.652344 66.289062 C 256.773438 66.289062 312.804688 120.558594 312.804688 187.5 C 312.804688 254.441406 256.773438 308.710938 187.652344 308.710938 Z M 187.652344 308.710938 " fill-opacity="1" fill-rule="nonzero"/><path fill="#00a1ff" d="M 240.714844 261.152344 C 226.65625 271.472656 207.121094 247.339844 189.683594 247.425781 C 172.246094 247.5 152.949219 271.835938 138.789062 261.65625 C 124.628906 251.472656 141.546875 225.4375 136.074219 208.878906 C 130.605469 192.320312 101.507812 181.480469 106.816406 164.871094 C 112.121094 148.261719 142.109375 156.300781 156.167969 145.980469 C 170.222656 135.664062 171.539062 104.640625 188.980469 104.558594 C 206.417969 104.460938 208.035156 135.480469 222.195312 145.65625 C 236.351562 155.835938 266.261719 147.5 271.730469 164.058594 C 277.199219 180.617188 248.214844 191.738281 242.902344 208.351562 C 237.605469 224.964844 254.777344 250.835938 240.714844 261.152344 Z M 240.714844 261.152344 " fill-opacity="1" fill-rule="nonzero"/></svg>