<svg xmlns="http://www.w3.org/2000/svg" xmlns:xlink="http://www.w3.org/1999/xlink" width="363" zoomAndPan="magnify" viewBox="0 0 272.25 148.499996" height="198" preserveAspectRatio="xMidYMid meet" version="1.2"><defs><clipPath id="b1f655cc6c"><path d="M 0.0820312 0 L 271.417969 0 L 271.417969 148 L 0.0820312 148 Z M 0.0820312 0 "/></clipPath><clipPath id="3cb2cd918c"><path d="M 203 30 L 271.417969 30 L 271.417969 142 L 203 142 Z M 203 30 "/></clipPath><clipPath id="d68137af9e"><path d="M 73 24 L 199 24 L 199 148 L 73 148 Z M 73 24 "/></clipPath><clipPath id="4367af5620"><path d="M 0.0820312 30 L 69 30 L 69 142 L 0.0820312 142 Z M 0.0820312 30 "/></clipPath></defs><g id="f7d28894e1"><g clip-rule="nonzero" clip-path="url(#b1f655cc6c)"><path style=" stroke:none;fill-rule:nonzero;fill:#ffffff;fill-opacity:1;" d="M 0.0820312 0 L 271.417969 0 L 271.417969 148 L 0.0820312 148 Z M 0.0820312 0 "/><path style=" stroke:none;fill-rule:nonzero;fill:#ffffff;fill-opacity:1;" d="M 0.0820312 0 L 271.417969 0 L 271.417969 148 L 0.0820312 148 Z M 0.0820312 0 "/></g><g clip-rule="nonzero" clip-path="url(#3cb2cd918c)"><path style=" stroke:none;fill-rule:evenodd;fill:#f7781d;fill-opacity:1;" d="M 263.5 30.898438 L 263.5 103.074219 L 271.304688 103.074219 L 271.304688 121.917969 L 263.5 121.917969 L 263.5 141.324219 L 236.046875 141.324219 L 236.046875 121.917969 L 203.296875 121.917969 L 203.296875 103.074219 L 227.101562 30.898438 Z M 236.046875 103.074219 L 236.046875 56.097656 L 223.828125 103.074219 Z M 236.046875 103.074219 "/></g><g clip-rule="nonzero" clip-path="url(#d68137af9e)"><path style=" stroke:none;fill-rule:evenodd;fill:#f7781d;fill-opacity:1;" d="M 135.738281 24.136719 C 153.011719 24.136719 168.65625 31.152344 179.976562 42.492188 C 191.300781 53.835938 198.304688 69.507812 198.304688 86.8125 C 198.304688 104.121094 191.300781 119.789062 179.976562 131.132812 C 168.65625 142.476562 153.011719 149.492188 135.738281 149.492188 C 118.460938 149.492188 102.820312 142.476562 91.5 131.132812 C 80.175781 119.789062 73.171875 104.121094 73.171875 86.8125 C 73.171875 69.507812 80.175781 53.835938 91.5 42.492188 C 102.820312 31.152344 118.460938 24.136719 135.738281 24.136719 Z M 160.242188 62.265625 C 153.972656 55.984375 145.308594 52.101562 135.738281 52.101562 C 126.167969 52.101562 117.503906 55.984375 111.234375 62.265625 C 104.964844 68.546875 101.085938 77.226562 101.085938 86.8125 C 101.085938 96.402344 104.964844 105.078125 111.234375 111.359375 C 117.503906 117.640625 126.167969 121.527344 135.738281 121.527344 C 145.308594 121.527344 153.972656 117.640625 160.242188 111.359375 C 166.511719 105.078125 170.390625 96.402344 170.390625 86.8125 C 170.390625 77.226562 166.511719 68.546875 160.242188 62.265625 "/></g><g clip-rule="nonzero" clip-path="url(#4367af5620)"><path style=" stroke:none;fill-rule:evenodd;fill:#f7781d;fill-opacity:1;" d="M 60.375 30.898438 L 60.375 103.074219 L 68.179688 103.074219 L 68.179688 121.917969 L 60.375 121.917969 L 60.375 141.324219 L 32.921875 141.324219 L 32.921875 121.917969 L 0.171875 121.917969 L 0.171875 103.074219 L 23.980469 30.898438 Z M 32.921875 103.074219 L 32.921875 56.097656 L 20.707031 103.074219 Z M 32.921875 103.074219 "/></g><path style=" stroke:none;fill-rule:evenodd;fill:#f6b096;fill-opacity:1;" d="M 59.367188 56.414062 C 59.367188 56.414062 58.214844 74.371094 70.8125 84.917969 C 79.28125 92.007812 85.214844 90.347656 86.300781 92.097656 C 87.601562 91.628906 89.332031 89.65625 89.332031 89.65625 C 89.332031 89.65625 105.636719 77.195312 111.195312 70.515625 C 116.757812 63.835938 118.058594 62.507812 118.058594 62.507812 L 111.777344 55.8125 L 105.183594 57.941406 C 105.183594 57.941406 92.453125 61.890625 88 69.949219 C 83.546875 78.007812 83.835938 77.945312 83.835938 77.945312 C 80.515625 68.976562 69.695312 72.800781 70.121094 56.242188 C 70.546875 39.679688 59.367188 56.414062 59.367188 56.414062 "/><path style=" stroke:none;fill-rule:evenodd;fill:#ffffff;fill-opacity:1;" d="M 103.730469 54 L 88.300781 68.511719 L 81.558594 73.148438 L 94.257812 87.917969 L 99.585938 81.632812 L 116.699219 67.042969 C 120.300781 63.984375 120.765625 58.597656 117.757812 54.96875 L 103.730469 54 "/><path style=" stroke:none;fill-rule:evenodd;fill:#0566a6;fill-opacity:1;" d="M 69.859375 51.429688 C 69.023438 52.1875 67.585938 51.339844 67.019531 50.949219 L 68.527344 33.953125 C 68.644531 33.347656 68.921875 32.808594 69.3125 32.363281 C 69.671875 31.953125 70.226562 31.828125 70.726562 32.042969 C 71.226562 32.257812 71.515625 32.746094 71.46875 33.289062 L 70.546875 43.691406 L 69.859375 51.429688 "/><path style=" stroke:none;fill-rule:evenodd;fill:#0566a6;fill-opacity:1;" d="M 66.886719 48.78125 C 66.222656 49.636719 64.648438 49.160156 64.015625 48.921875 L 62.0625 33.089844 C 62.054688 32.480469 62.246094 31.917969 62.582031 31.433594 C 62.882812 31.007812 63.386719 30.816406 63.890625 30.945312 C 64.394531 31.070312 64.753906 31.472656 64.816406 31.992188 L 66.003906 41.625 L 66.886719 48.78125 "/><path style=" stroke:none;fill-rule:evenodd;fill:#0566a6;fill-opacity:1;" d="M 63.816406 48.9375 C 63.386719 49.851562 61.863281 49.738281 61.242188 49.652344 L 56.230469 35.59375 C 56.039062 34.789062 56.265625 34.039062 56.769531 33.398438 C 56.984375 33.125 57.304688 33 57.644531 33.054688 C 57.988281 33.109375 58.25 33.332031 58.367188 33.660156 L 61.566406 42.636719 L 63.816406 48.9375 "/><path style=" stroke:none;fill-rule:evenodd;fill:#0566a6;fill-opacity:1;" d="M 60.550781 54.46875 C 60.152344 55.304688 58.75 55.191406 58.179688 55.109375 L 52.492188 38.832031 C 52.332031 38.136719 52.527344 37.535156 52.949219 37.007812 C 53.164062 36.738281 53.484375 36.617188 53.824219 36.675781 C 54.164062 36.734375 54.425781 36.957031 54.542969 37.28125 L 57.398438 45.460938 L 60.550781 54.46875 "/><path style=" stroke:none;fill-rule:evenodd;fill:#0566a6;fill-opacity:1;" d="M 77.207031 48.582031 C 74.316406 51.632812 72.839844 56.652344 69.648438 57.046875 C 67.6875 57.289062 65.910156 56.011719 65.6875 54.191406 C 65.460938 52.375 66.871094 50.703125 68.835938 50.457031 C 69.828125 50.335938 70.769531 50.601562 71.488281 51.128906 L 72.785156 49.820312 C 72.886719 48.386719 74.304688 46.574219 76.265625 46.496094 C 76.777344 46.476562 77.222656 46.753906 77.4375 47.222656 C 77.648438 47.691406 77.558594 48.210938 77.207031 48.582031 "/><path style=" stroke:none;fill-rule:evenodd;fill:#0566a6;fill-opacity:1;" d="M 56.546875 50.183594 C 56.253906 46.539062 60.535156 44.875 62.917969 44.582031 C 64.449219 44.390625 66.023438 44.652344 67.632812 45.117188 C 69.167969 45.351562 70.464844 46.671875 70.757812 48.421875 C 70.761719 48.441406 70.765625 48.460938 70.769531 48.480469 L 71.261719 52.480469 C 71.554688 54.859375 70.175781 57.007812 68.195312 57.253906 L 61.175781 58.121094 C 59.195312 58.367188 57.335938 56.621094 57.042969 54.242188 L 56.566406 50.378906 L 56.546875 50.242188 C 56.546875 50.222656 56.546875 50.203125 56.546875 50.183594 "/><path style=" stroke:none;fill-rule:evenodd;fill:#004c80;fill-opacity:1;" d="M 59.714844 50.832031 C 63.1875 50.839844 64.664062 53.996094 64.851562 55.507812 C 64.664062 53.996094 65.128906 50.699219 68.699219 49.71875 L 59.714844 50.832031 "/><path style=" stroke:none;fill-rule:evenodd;fill:#004c80;fill-opacity:1;" d="M 71.339844 59.136719 C 71.355469 58.933594 71.367188 58.734375 71.378906 58.535156 C 71.390625 58.332031 71.398438 58.132812 71.402344 57.933594 C 71.410156 57.550781 71.257812 57.164062 71.003906 56.847656 C 70.75 56.539062 70.402344 56.292969 70.019531 56.234375 C 68.308594 55.972656 66.578125 55.835938 64.851562 55.902344 C 63.125 55.972656 61.410156 56.242188 59.722656 56.632812 C 59.347656 56.722656 59.015625 56.996094 58.789062 57.324219 C 58.558594 57.65625 58.4375 58.054688 58.476562 58.433594 C 58.496094 58.636719 58.519531 58.832031 58.546875 59.03125 C 58.574219 59.230469 58.601562 59.429688 58.632812 59.628906 C 58.695312 60.007812 58.90625 60.300781 59.183594 60.472656 C 59.464844 60.644531 59.808594 60.683594 60.164062 60.597656 C 61.753906 60.210938 63.371094 59.941406 65.003906 59.878906 C 66.632812 59.8125 68.269531 59.957031 69.882812 60.21875 C 70.246094 60.277344 70.585938 60.210938 70.851562 60.019531 C 71.117188 59.828125 71.304688 59.519531 71.339844 59.136719 "/><path style=" stroke:none;fill-rule:evenodd;fill:#f6b096;fill-opacity:1;" d="M 212.109375 56.414062 C 212.109375 56.414062 213.261719 74.371094 200.660156 84.917969 C 192.195312 92.007812 186.257812 90.347656 185.175781 92.097656 C 183.875 91.628906 182.144531 89.65625 182.144531 89.65625 C 182.144531 89.65625 165.839844 77.195312 160.277344 70.515625 C 154.71875 63.835938 153.417969 62.507812 153.417969 62.507812 L 159.699219 55.8125 L 166.050781 59.515625 C 166.050781 59.515625 179.023438 61.890625 183.476562 69.949219 C 187.929688 78.007812 187.640625 77.945312 187.640625 77.945312 C 190.960938 68.976562 201.78125 72.800781 201.355469 56.242188 C 200.929688 39.679688 212.109375 56.414062 212.109375 56.414062 "/><path style=" stroke:none;fill-rule:evenodd;fill:#ffffff;fill-opacity:1;" d="M 167.746094 54 L 183.175781 68.511719 L 189.917969 73.148438 L 177.21875 87.917969 L 171.890625 81.632812 L 154.777344 67.042969 C 151.175781 63.984375 150.710938 58.597656 153.71875 54.96875 L 167.746094 54 "/><path style=" stroke:none;fill-rule:evenodd;fill:#0566a6;fill-opacity:1;" d="M 201.617188 51.429688 C 202.453125 52.1875 203.890625 51.339844 204.457031 50.949219 L 202.949219 33.953125 C 202.832031 33.347656 202.554688 32.808594 202.164062 32.363281 C 201.804688 31.953125 201.25 31.828125 200.75 32.042969 C 200.25 32.257812 199.960938 32.746094 200.007812 33.289062 L 200.929688 43.691406 L 201.617188 51.429688 "/><path style=" stroke:none;fill-rule:evenodd;fill:#0566a6;fill-opacity:1;" d="M 204.585938 48.78125 C 205.253906 49.636719 206.828125 49.160156 207.460938 48.921875 L 209.414062 33.089844 C 209.421875 32.480469 209.230469 31.917969 208.894531 31.433594 C 208.59375 31.007812 208.089844 30.816406 207.585938 30.945312 C 207.078125 31.070312 206.722656 31.472656 206.660156 31.992188 L 205.46875 41.625 L 204.585938 48.78125 "/><path style=" stroke:none;fill-rule:evenodd;fill:#0566a6;fill-opacity:1;" d="M 207.660156 48.9375 C 208.089844 49.851562 209.613281 49.738281 210.234375 49.652344 L 215.246094 35.59375 C 215.4375 34.789062 215.210938 34.039062 214.707031 33.398438 C 214.496094 33.125 214.171875 33 213.832031 33.054688 C 213.492188 33.109375 213.226562 33.332031 213.109375 33.660156 L 209.910156 42.636719 L 207.660156 48.9375 "/><path style=" stroke:none;fill-rule:evenodd;fill:#0566a6;fill-opacity:1;" d="M 210.925781 54.46875 C 211.328125 55.304688 212.726562 55.191406 213.296875 55.109375 L 218.984375 38.832031 C 219.144531 38.136719 218.949219 37.535156 218.527344 37.007812 C 218.3125 36.738281 217.992188 36.617188 217.652344 36.675781 C 217.3125 36.734375 217.046875 36.957031 216.933594 37.28125 L 214.074219 45.460938 L 210.925781 54.46875 "/><path style=" stroke:none;fill-rule:evenodd;fill:#0566a6;fill-opacity:1;" d="M 194.269531 48.582031 C 197.160156 51.632812 198.636719 56.652344 201.828125 57.046875 C 203.789062 57.289062 205.5625 56.011719 205.789062 54.191406 C 206.011719 52.375 204.605469 50.703125 202.640625 50.457031 C 201.648438 50.335938 200.707031 50.601562 199.988281 51.128906 L 198.691406 49.820312 C 198.589844 48.386719 197.171875 46.574219 195.210938 46.496094 C 194.699219 46.476562 194.25 46.753906 194.039062 47.222656 C 193.828125 47.691406 193.917969 48.210938 194.269531 48.582031 "/><path style=" stroke:none;fill-rule:evenodd;fill:#0566a6;fill-opacity:1;" d="M 214.929688 50.183594 C 215.222656 46.539062 210.941406 44.875 208.554688 44.582031 C 207.027344 44.390625 205.449219 44.652344 203.84375 45.117188 C 202.304688 45.351562 201.011719 46.671875 200.71875 48.421875 C 200.714844 48.441406 200.710938 48.460938 200.707031 48.480469 L 200.214844 52.480469 C 199.921875 54.859375 201.300781 57.007812 203.277344 57.253906 L 210.300781 58.121094 C 212.28125 58.367188 214.140625 56.621094 214.433594 54.242188 L 214.910156 50.378906 L 214.925781 50.242188 C 214.929688 50.222656 214.929688 50.203125 214.929688 50.183594 "/><path style=" stroke:none;fill-rule:evenodd;fill:#004c80;fill-opacity:1;" d="M 211.761719 50.832031 C 208.289062 50.839844 206.8125 53.996094 206.625 55.507812 C 206.8125 53.996094 206.34375 50.699219 202.777344 49.71875 L 211.761719 50.832031 "/><path style=" stroke:none;fill-rule:evenodd;fill:#004c80;fill-opacity:1;" d="M 200.136719 59.136719 C 200.121094 58.933594 200.109375 58.734375 200.097656 58.535156 C 200.085938 58.332031 200.078125 58.132812 200.074219 57.933594 C 200.066406 57.550781 200.21875 57.164062 200.472656 56.847656 C 200.726562 56.539062 201.074219 56.292969 201.457031 56.234375 C 203.167969 55.972656 204.898438 55.835938 206.625 55.902344 C 208.351562 55.972656 210.066406 56.242188 211.753906 56.632812 C 212.128906 56.722656 212.460938 56.996094 212.6875 57.324219 C 212.914062 57.65625 213.035156 58.054688 213 58.433594 C 212.980469 58.636719 212.957031 58.832031 212.929688 59.03125 C 212.902344 59.230469 212.875 59.429688 212.839844 59.628906 C 212.78125 60.007812 212.570312 60.300781 212.292969 60.472656 C 212.011719 60.644531 211.667969 60.683594 211.3125 60.597656 C 209.722656 60.210938 208.105469 59.941406 206.472656 59.878906 C 204.84375 59.8125 203.207031 59.957031 201.589844 60.21875 C 201.230469 60.277344 200.890625 60.210938 200.625 60.019531 C 200.359375 59.828125 200.167969 59.519531 200.136719 59.136719 "/><path style=" stroke:none;fill-rule:evenodd;fill:#ffffff;fill-opacity:1;" d="M 103.730469 54 C 114.117188 51.609375 124.84375 49.910156 135.730469 49.910156 C 146.621094 49.910156 157.351562 51.609375 167.746094 54 C 165.851562 56.410156 164.578125 58.316406 163.21875 62.890625 C 161.863281 67.460938 162.105469 72.914062 164.421875 75.023438 C 163.664062 78.609375 162.945312 82.882812 162.273438 86.464844 C 160.574219 95.503906 159.027344 104.554688 157.769531 113.609375 C 151.78125 118.554688 144.105469 121.527344 135.738281 121.527344 C 127.363281 121.527344 119.683594 118.554688 113.695312 113.601562 C 112.457031 104.550781 110.957031 95.5 109.257812 86.464844 C 108.585938 82.886719 107.800781 78.613281 107.042969 75.035156 C 109.367188 72.929688 109.613281 67.464844 108.257812 62.890625 C 106.898438 58.3125 105.625 56.410156 103.730469 54 "/><path style=" stroke:none;fill-rule:evenodd;fill:#dc977d;fill-opacity:1;" d="M 126.105469 31.566406 L 145.371094 31.566406 L 145.371094 51.191406 C 142.796875 53.363281 139.425781 54.679688 135.738281 54.679688 C 132.050781 54.679688 128.679688 53.363281 126.105469 51.191406 L 126.105469 31.566406 "/><path style=" stroke:none;fill-rule:evenodd;fill:#f6b096;fill-opacity:1;" d="M 152.21875 28.546875 C 153.992188 28.546875 155.429688 30.109375 155.429688 32.035156 C 155.429688 33.960938 153.992188 35.523438 152.21875 35.523438 C 150.445312 35.523438 149.007812 33.960938 149.007812 32.035156 C 149.007812 30.109375 150.445312 28.546875 152.21875 28.546875 "/><path style=" stroke:none;fill-rule:evenodd;fill:#dc977d;fill-opacity:1;" d="M 152.21875 30.210938 C 153.144531 30.210938 153.894531 31.027344 153.894531 32.035156 C 153.894531 33.039062 153.144531 33.855469 152.21875 33.855469 C 151.292969 33.855469 150.542969 33.039062 150.542969 32.035156 C 150.542969 31.027344 151.292969 30.210938 152.21875 30.210938 "/><path style=" stroke:none;fill-rule:evenodd;fill:#f6b096;fill-opacity:1;" d="M 119.257812 28.546875 C 121.03125 28.546875 122.46875 30.109375 122.46875 32.035156 C 122.46875 33.960938 121.03125 35.523438 119.257812 35.523438 C 117.484375 35.523438 116.046875 33.960938 116.046875 32.035156 C 116.046875 30.109375 117.484375 28.546875 119.257812 28.546875 "/><path style=" stroke:none;fill-rule:evenodd;fill:#dc977d;fill-opacity:1;" d="M 119.257812 30.210938 C 120.183594 30.210938 120.933594 31.027344 120.933594 32.035156 C 120.933594 33.039062 120.183594 33.855469 119.257812 33.855469 C 118.332031 33.855469 117.582031 33.039062 117.582031 32.035156 C 117.582031 31.027344 118.332031 30.210938 119.257812 30.210938 "/><path style=" stroke:none;fill-rule:evenodd;fill:#f6b096;fill-opacity:1;" d="M 130.351562 50.605469 C 125.878906 46.246094 119.226562 43.367188 119.226562 43.367188 L 119.226562 28.613281 C 119.226562 28.613281 118.800781 9.570312 135.355469 11.378906 C 151.914062 9.570312 152.34375 28.613281 152.34375 28.613281 L 152.34375 43.367188 C 152.34375 43.367188 145.445312 47.003906 141.269531 50.621094 C 139.566406 50.121094 137.707031 49.847656 135.785156 49.847656 C 133.863281 49.847656 132.039062 50.117188 130.351562 50.605469 "/><path style=" stroke:none;fill-rule:evenodd;fill:#dc977d;fill-opacity:1;" d="M 133 37.835938 C 133.351562 38.617188 135.214844 39.382812 135.785156 39.601562 C 136.355469 39.382812 138.21875 38.617188 138.566406 37.835938 C 137.75 38.054688 136.800781 38.179688 135.785156 38.179688 C 134.769531 38.179688 133.820312 38.054688 133 37.835938 "/><path style=" stroke:none;fill-rule:evenodd;fill:#dc977d;fill-opacity:1;" d="M 132.695312 29.148438 C 132.703125 29.164062 136.335938 33.699219 133 37.835938 L 133.5625 38.152344 C 135.636719 34.972656 134.929688 31.921875 132.695312 29.148438 "/><path style=" stroke:none;fill-rule:evenodd;fill:#000000;fill-opacity:1;" d="M 148.324219 12.847656 C 148.324219 12.847656 146.335938 16.824219 146.761719 20.214844 C 147.1875 23.601562 150.519531 27.765625 149.707031 31.960938 C 149.566406 32.699219 149.425781 33.324219 149.300781 33.863281 C 149.207031 34.246094 149.355469 34.632812 149.679688 34.84375 C 150.003906 35.058594 150.402344 35.03125 150.699219 34.777344 L 152.050781 33.617188 C 152.050781 33.617188 153.894531 19.613281 148.324219 12.847656 "/><path style=" stroke:none;fill-rule:evenodd;fill:#000000;fill-opacity:1;" d="M 123.242188 12.847656 C 123.242188 12.847656 125.234375 16.824219 124.808594 20.214844 C 124.382812 23.601562 121.050781 27.765625 121.863281 31.960938 C 122.003906 32.699219 122.140625 33.324219 122.269531 33.863281 C 122.363281 34.246094 122.214844 34.632812 121.890625 34.84375 C 121.566406 35.058594 121.167969 35.03125 120.871094 34.777344 L 119.519531 33.617188 C 119.519531 33.617188 117.675781 19.613281 123.242188 12.847656 "/><path style=" stroke:none;fill-rule:evenodd;fill:#000000;fill-opacity:1;" d="M 144.855469 24.980469 C 143.578125 24.238281 142.046875 24.328125 140.886719 25.082031 L 146.734375 28.488281 C 146.8125 27.105469 146.132812 25.726562 144.855469 24.980469 "/><path style=" stroke:none;fill-rule:evenodd;fill:#000000;fill-opacity:1;" d="M 126.871094 25.644531 C 128.148438 24.902344 129.683594 24.992188 130.839844 25.746094 L 124.992188 29.148438 C 124.914062 27.765625 125.59375 26.390625 126.871094 25.644531 "/><path style=" stroke:none;fill-rule:evenodd;fill:#ffffff;fill-opacity:1;" d="M 130.4375 27.300781 C 128.660156 27.300781 127.21875 29.09375 127.21875 31.308594 C 127.21875 33.523438 128.660156 35.316406 130.4375 35.316406 C 132.214844 35.316406 133.65625 33.523438 133.65625 31.308594 C 133.65625 29.09375 132.214844 27.300781 130.4375 27.300781 "/><path style=" stroke:none;fill-rule:evenodd;fill:#00ccff;fill-opacity:1;" d="M 129.539062 27.753906 C 128.910156 27.753906 128.398438 28.265625 128.398438 28.898438 C 128.398438 29.527344 128.910156 30.039062 129.539062 30.039062 C 130.167969 30.039062 130.679688 29.527344 130.679688 28.898438 C 130.679688 28.265625 130.167969 27.753906 129.539062 27.753906 "/><path style=" stroke:none;fill-rule:evenodd;fill:#ffffff;fill-opacity:1;" d="M 130.277344 27.65625 C 130.003906 27.65625 129.78125 27.878906 129.78125 28.15625 C 129.78125 28.429688 130.003906 28.652344 130.277344 28.652344 C 130.550781 28.652344 130.773438 28.429688 130.773438 28.15625 C 130.773438 27.878906 130.550781 27.65625 130.277344 27.65625 "/><path style=" stroke:none;fill-rule:evenodd;fill:#ffffff;fill-opacity:1;" d="M 129.226562 29.230469 C 129.050781 29.230469 128.910156 29.371094 128.910156 29.546875 C 128.910156 29.71875 129.050781 29.859375 129.226562 29.859375 C 129.398438 29.859375 129.539062 29.71875 129.539062 29.546875 C 129.539062 29.371094 129.398438 29.230469 129.226562 29.230469 "/><path style=" stroke:none;fill-rule:evenodd;fill:#000000;fill-opacity:1;" d="M 129.539062 28.226562 C 129.195312 28.226562 128.917969 28.503906 128.917969 28.851562 C 128.917969 29.195312 129.195312 29.472656 129.539062 29.472656 C 129.882812 29.472656 130.164062 29.195312 130.164062 28.851562 C 130.164062 28.503906 129.882812 28.226562 129.539062 28.226562 "/><path style=" stroke:none;fill-rule:evenodd;fill:#ffffff;fill-opacity:1;" d="M 140.496094 27.300781 C 138.71875 27.300781 137.28125 29.09375 137.28125 31.308594 C 137.28125 33.523438 138.71875 35.316406 140.496094 35.316406 C 142.273438 35.316406 143.714844 33.523438 143.714844 31.308594 C 143.714844 29.09375 142.273438 27.300781 140.496094 27.300781 "/><path style=" stroke:none;fill-rule:evenodd;fill:#00ccff;fill-opacity:1;" d="M 139.597656 27.753906 C 138.96875 27.753906 138.457031 28.265625 138.457031 28.898438 C 138.457031 29.527344 138.96875 30.039062 139.597656 30.039062 C 140.226562 30.039062 140.738281 29.527344 140.738281 28.898438 C 140.738281 28.265625 140.226562 27.753906 139.597656 27.753906 "/><path style=" stroke:none;fill-rule:evenodd;fill:#ffffff;fill-opacity:1;" d="M 140.335938 27.65625 C 140.0625 27.65625 139.839844 27.878906 139.839844 28.15625 C 139.839844 28.429688 140.0625 28.652344 140.335938 28.652344 C 140.609375 28.652344 140.832031 28.429688 140.832031 28.15625 C 140.832031 27.878906 140.609375 27.65625 140.335938 27.65625 "/><path style=" stroke:none;fill-rule:evenodd;fill:#ffffff;fill-opacity:1;" d="M 139.285156 29.230469 C 139.109375 29.230469 138.96875 29.371094 138.96875 29.546875 C 138.96875 29.71875 139.109375 29.859375 139.285156 29.859375 C 139.457031 29.859375 139.597656 29.71875 139.597656 29.546875 C 139.597656 29.371094 139.457031 29.230469 139.285156 29.230469 "/><path style=" stroke:none;fill-rule:evenodd;fill:#000000;fill-opacity:1;" d="M 139.597656 28.226562 C 139.253906 28.226562 138.976562 28.503906 138.976562 28.851562 C 138.976562 29.195312 139.253906 29.472656 139.597656 29.472656 C 139.941406 29.472656 140.21875 29.195312 140.21875 28.851562 C 140.21875 28.503906 139.941406 28.226562 139.597656 28.226562 "/><path style=" stroke:none;fill-rule:evenodd;fill:#dc977d;fill-opacity:1;" d="M 137.996094 45.128906 C 136.054688 45.886719 135.445312 47.914062 135.445312 48.773438 C 135.445312 47.914062 134.957031 46.230469 132.898438 46.476562 L 137.996094 45.128906 "/><path style=" stroke:none;fill-rule:evenodd;fill:#ffffff;fill-opacity:1;" d="M 128.636719 43.140625 C 128.636719 41.566406 131.621094 40.285156 135.296875 40.285156 C 138.683594 40.285156 140.699219 41.191406 141.914062 42.816406 C 139.28125 40.285156 133.660156 40.925781 131.476562 42.527344 C 129.289062 44.128906 128.636719 43.140625 128.636719 43.140625 "/><path style=" stroke:none;fill-rule:evenodd;fill:#a80403;fill-opacity:1;" d="M 141.804688 42.675781 C 141.839844 42.722656 141.878906 42.769531 141.914062 42.816406 C 139.28125 40.285156 133.660156 40.925781 131.476562 42.527344 C 129.796875 43.757812 129.023438 43.460938 128.753906 43.257812 C 130.84375 41.125 137.84375 39.183594 141.804688 42.675781 "/><path style=" stroke:none;fill-rule:evenodd;fill:#dc977d;fill-opacity:1;" d="M 132.460938 43.21875 C 132.449219 43.226562 128.160156 45.429688 127.664062 43.660156 C 126.996094 44.542969 129.070312 46.023438 132.460938 43.21875 "/><path style=" stroke:none;fill-rule:evenodd;fill:#0566a6;fill-opacity:1;" d="M 135.785156 0.00390625 C 136.867188 0.00390625 137.746094 0.320312 137.746094 0.71875 C 137.746094 1.113281 136.867188 1.429688 135.785156 1.429688 C 134.703125 1.429688 133.824219 1.113281 133.824219 0.71875 C 133.824219 0.320312 134.703125 0.00390625 135.785156 0.00390625 "/><path style=" stroke:none;fill-rule:evenodd;fill:#004c80;fill-opacity:1;" d="M 119.222656 21.796875 L 152.34375 21.796875 L 152.34375 11.257812 C 152.34375 5.460938 147.609375 0.71875 141.824219 0.71875 L 129.746094 0.71875 C 123.957031 0.71875 119.222656 5.460938 119.222656 11.257812 L 119.222656 21.796875 "/><path style=" stroke:none;fill-rule:evenodd;fill:#0566a6;fill-opacity:1;" d="M 121.847656 29.851562 C 125.984375 25.636719 130.882812 23.5 135.792969 23.4375 C 140.699219 23.5 145.597656 25.636719 149.734375 29.851562 C 153.808594 34.007812 153.742188 23.398438 152.351562 18.613281 C 147.660156 16.5 141.734375 15.433594 135.792969 15.40625 C 129.847656 15.433594 123.921875 16.5 119.230469 18.613281 C 117.8125 23.710938 117.773438 34.007812 121.847656 29.851562 "/><path style=" stroke:none;fill-rule:evenodd;fill:#ffffff;fill-opacity:1;" d="M 146.277344 9.570312 L 146.277344 14.503906 C 146.277344 14.746094 146.175781 14.953125 145.980469 15.105469 C 145.78125 15.261719 145.550781 15.316406 145.300781 15.269531 C 142.328125 14.703125 139.0625 14.417969 135.789062 14.40625 C 132.515625 14.417969 129.246094 14.707031 126.269531 15.269531 C 126.019531 15.316406 125.785156 15.261719 125.589844 15.109375 C 125.394531 14.957031 125.289062 14.746094 125.289062 14.507812 L 125.289062 9.570312 C 125.289062 9.195312 125.558594 8.882812 125.941406 8.808594 C 129.007812 8.199219 132.394531 7.890625 135.789062 7.878906 C 139.179688 7.890625 142.566406 8.199219 145.628906 8.804688 C 146.011719 8.878906 146.277344 9.195312 146.277344 9.570312 "/><path style=" stroke:none;fill-rule:evenodd;fill:#0566a6;fill-opacity:1;" d="M 119.632812 68.605469 L 123.929688 68.605469 L 123.929688 49.765625 C 122.496094 49.894531 121.0625 50.042969 119.632812 50.207031 Z M 147.59375 49.769531 C 149.03125 49.894531 150.464844 50.042969 151.894531 50.210938 L 151.894531 68.605469 L 147.59375 68.605469 L 147.59375 49.769531 "/><path style=" stroke:none;fill-rule:evenodd;fill:#004c80;fill-opacity:1;" d="M 161.671875 89.832031 C 160.222656 97.742188 158.898438 105.664062 157.800781 113.585938 C 151.808594 118.546875 144.121094 121.527344 135.738281 121.527344 C 127.375 121.527344 119.703125 118.5625 113.71875 113.621094 C 112.617188 105.6875 111.292969 97.753906 109.839844 89.832031 L 111.070312 89.832031 C 115.765625 89.832031 119.597656 85.996094 119.597656 81.289062 L 119.597656 64.539062 L 151.929688 64.539062 L 151.929688 81.289062 C 151.929688 85.996094 155.757812 89.832031 160.457031 89.832031 L 161.671875 89.832031 "/><path style=" stroke:none;fill-rule:evenodd;fill:#000000;fill-opacity:1;" d="M 119.550781 60.53125 L 124.011719 60.53125 C 124.222656 60.53125 124.417969 60.617188 124.554688 60.757812 C 124.695312 60.898438 124.785156 61.089844 124.785156 61.304688 L 124.785156 62.964844 C 124.785156 63.175781 124.695312 63.371094 124.554688 63.511719 C 124.417969 63.652344 124.222656 63.738281 124.011719 63.738281 L 119.550781 63.738281 C 119.339844 63.738281 119.144531 63.652344 119.003906 63.511719 C 118.867188 63.371094 118.777344 63.175781 118.777344 62.964844 L 118.777344 61.304688 C 118.777344 61.089844 118.867188 60.898438 119.003906 60.757812 C 119.144531 60.617188 119.339844 60.53125 119.550781 60.53125 Z M 123.929688 61.382812 L 119.632812 61.382812 L 119.632812 62.882812 L 123.929688 62.882812 L 123.929688 61.382812 "/><path style=" stroke:none;fill-rule:evenodd;fill:#000000;fill-opacity:1;" d="M 147.515625 60.53125 L 151.972656 60.53125 C 152.1875 60.53125 152.382812 60.617188 152.523438 60.757812 C 152.660156 60.898438 152.746094 61.089844 152.746094 61.304688 L 152.746094 62.964844 C 152.746094 63.175781 152.660156 63.371094 152.523438 63.511719 C 152.382812 63.652344 152.1875 63.738281 151.972656 63.738281 L 147.515625 63.738281 C 147.304688 63.738281 147.109375 63.652344 146.96875 63.511719 C 146.828125 63.371094 146.742188 63.175781 146.742188 62.964844 L 146.742188 61.304688 C 146.742188 61.089844 146.828125 60.898438 146.96875 60.757812 C 147.109375 60.617188 147.304688 60.53125 147.515625 60.53125 Z M 151.894531 61.382812 L 147.59375 61.382812 L 147.59375 62.882812 L 151.894531 62.882812 L 151.894531 61.382812 "/><path style=" stroke:none;fill-rule:evenodd;fill:#0566a6;fill-opacity:1;" d="M 123.609375 71.832031 L 147.90625 71.832031 L 147.90625 90.347656 L 123.609375 90.347656 L 123.609375 71.832031 "/><path style=" stroke:none;fill-rule:evenodd;fill:#004c80;fill-opacity:1;" d="M 147 72.757812 L 147 80.734375 C 147 82.671875 145.417969 84.257812 143.484375 84.257812 L 128.03125 84.257812 C 126.09375 84.257812 124.515625 82.671875 124.515625 80.734375 L 124.515625 72.757812 L 147 72.757812 "/></g></svg>