<svg xmlns="http://www.w3.org/2000/svg" xmlns:xlink="http://www.w3.org/1999/xlink" width="500" zoomAndPan="magnify" viewBox="0 0 375 374.999991" height="500" preserveAspectRatio="xMidYMid meet" version="1.0"><defs><clipPath id="385690d308"><path d="M 108.273438 108.273438 L 266.726562 108.273438 L 266.726562 266.726562 L 108.273438 266.726562 Z M 108.273438 108.273438 " clip-rule="nonzero"/></clipPath><clipPath id="f1bb5245f0"><path d="M 187.5 108.273438 C 143.746094 108.273438 108.273438 143.746094 108.273438 187.5 C 108.273438 231.253906 143.746094 266.726562 187.5 266.726562 C 231.253906 266.726562 266.726562 231.253906 266.726562 187.5 C 266.726562 143.746094 231.253906 108.273438 187.5 108.273438 Z M 187.5 108.273438 " clip-rule="nonzero"/></clipPath><clipPath id="d5185122da"><path d="M 0.273438 0.273438 L 158.726562 0.273438 L 158.726562 158.726562 L 0.273438 158.726562 Z M 0.273438 0.273438 " clip-rule="nonzero"/></clipPath><clipPath id="05c3fc7f89"><path d="M 79.5 0.273438 C 35.746094 0.273438 0.273438 35.746094 0.273438 79.5 C 0.273438 123.253906 35.746094 158.726562 79.5 158.726562 C 123.253906 158.726562 158.726562 123.253906 158.726562 79.5 C 158.726562 35.746094 123.253906 0.273438 79.5 0.273438 Z M 79.5 0.273438 " clip-rule="nonzero"/></clipPath><clipPath id="b0b16adb81"><rect x="0" width="159" y="0" height="159"/></clipPath></defs><path fill="#fed848" d="M 375.046875 187.546875 C 375.046875 211.410156 347.773438 229.589844 339.160156 250.328125 C 330.261719 271.816406 336.316406 303.933594 320.125 320.125 C 303.933594 336.316406 271.816406 330.25 250.339844 339.171875 C 229.601562 347.761719 211.375 375.035156 187.546875 375.035156 C 163.714844 375.035156 145.5 347.761719 124.738281 339.171875 C 110.683594 333.328125 92.078125 333.910156 76.363281 330.476562 C 68.066406 328.660156 60.578125 325.726562 54.953125 320.125 C 38.761719 303.933594 44.773438 271.816406 35.921875 250.328125 C 27.328125 229.613281 0.0351562 211.363281 0.0351562 187.546875 C 0.0351562 163.726562 27.308594 145.5 35.921875 124.75 C 44.773438 103.296875 38.761719 71.160156 55 54.964844 C 71.238281 38.773438 103.308594 44.828125 124.785156 35.933594 C 145.523438 27.339844 163.75 0.046875 187.589844 0.046875 C 211.433594 0.046875 229.636719 27.316406 250.386719 35.933594 C 260.046875 39.941406 271.863281 40.910156 283.421875 42.25 C 297.546875 43.886719 311.261719 46.066406 320.171875 54.964844 C 336.363281 71.160156 330.308594 103.25 339.203125 124.75 C 347.75 145.464844 375.046875 163.703125 375.046875 187.546875 Z M 375.046875 187.546875 " fill-opacity="1" fill-rule="nonzero"/><path fill="#fdfcad" d="M 105.839844 58.691406 C 105.839844 58.691406 133.113281 54.511719 145.613281 46.125 C 158.113281 37.738281 164.464844 33.558594 162.363281 44.035156 C 160.261719 54.511719 147.703125 67.078125 133.046875 69.171875 C 118.386719 71.261719 99.558594 67.078125 105.839844 58.691406 Z M 105.839844 58.691406 " fill-opacity="1" fill-rule="nonzero"/><path fill="#fec231" d="M 350.453125 184.148438 C 350.453125 204.714844 326.886719 220.511719 319.476562 238.351562 C 311.785156 256.910156 317.011719 284.636719 303.035156 298.578125 C 289.058594 312.523438 261.328125 307.316406 242.808594 315.023438 C 224.910156 322.441406 209.171875 345.988281 188.589844 345.988281 C 168.011719 345.988281 152.226562 322.441406 134.363281 315.023438 C 122.226562 309.976562 106.171875 310.476562 92.601562 307.511719 C 137.851562 245.464844 235.921875 108.273438 271.328125 58.648438 C 283.523438 60.058594 295.375 61.941406 303.058594 69.625 C 317.035156 83.613281 311.808594 111.316406 319.5 129.851562 C 326.886719 147.808594 350.453125 163.523438 350.453125 184.148438 Z M 350.453125 184.148438 " fill-opacity="1" fill-rule="nonzero"/><path fill="#fdfcad" d="M 34.613281 159.25 C 34.613281 159.25 51.375 140.398438 57.660156 119.476562 C 63.941406 98.558594 57.660156 71.296875 72.328125 73.398438 C 87 75.5 84.898438 109.011719 76.511719 127.863281 C 68.125 146.714844 53.476562 171.851562 40.898438 173.941406 C 28.316406 176.035156 28.328125 167.625 34.613281 159.25 Z M 34.613281 159.25 " fill-opacity="1" fill-rule="nonzero"/><path fill="#f59b14" d="M 187.546875 8.421875 C 199.011719 8.421875 209.796875 17.148438 221.214844 26.375 C 229.386719 32.976562 237.839844 39.808594 247.125 43.660156 C 256.863281 47.703125 267.988281 48.941406 278.738281 50.160156 C 293.066406 51.761719 306.589844 53.285156 314.191406 60.886719 C 321.796875 68.488281 323.285156 82.023438 324.933594 96.339844 C 326.136719 107.101562 327.386719 118.226562 331.421875 127.953125 C 335.273438 137.25 342.101562 145.691406 348.703125 153.863281 C 357.941406 165.285156 366.660156 176.066406 366.660156 187.546875 C 366.660156 199.023438 357.941406 209.808594 348.703125 221.226562 C 342.101562 229.386719 335.273438 237.839844 331.421875 247.125 C 327.386719 256.863281 326.136719 267.988281 324.933594 278.75 C 323.316406 293.066406 321.808594 306.589844 314.191406 314.203125 C 306.578125 321.816406 293.066406 323.296875 278.738281 324.933594 C 267.988281 326.136719 256.863281 327.386719 247.125 331.421875 C 237.839844 335.273438 229.386719 342.101562 221.214844 348.703125 C 209.851562 357.941406 199.011719 366.660156 187.546875 366.660156 C 176.078125 366.660156 165.285156 357.941406 153.863281 348.75 C 145.691406 342.148438 137.238281 335.316406 127.953125 331.464844 C 118.214844 327.433594 107.089844 326.183594 96.339844 324.976562 C 82.011719 323.363281 68.488281 321.851562 60.886719 314.25 C 53.285156 306.648438 51.796875 293.113281 50.148438 278.796875 C 48.941406 268.035156 47.691406 256.910156 43.660156 247.171875 C 39.808594 237.886719 32.976562 229.433594 26.375 221.273438 C 17.136719 209.910156 8.421875 199.058594 8.421875 187.589844 C 8.421875 176.125 17.136719 165.328125 26.375 153.910156 C 32.976562 145.738281 39.808594 137.296875 43.660156 128 C 47.691406 118.273438 48.941406 107.148438 50.148438 96.386719 C 51.761719 82.066406 53.273438 68.535156 60.886719 60.933594 C 68.5 53.328125 82.011719 51.839844 96.339844 50.203125 C 107.089844 48.988281 118.214844 47.75 127.953125 43.703125 C 137.238281 39.851562 145.691406 33.023438 153.863281 26.421875 C 165.285156 17.191406 176.066406 8.464844 187.546875 8.464844 M 187.546875 0.0898438 C 163.683594 0.0898438 145.5 27.363281 124.738281 35.964844 C 103.261719 44.875 71.148438 38.816406 54.953125 55 C 38.761719 71.183594 44.828125 103.296875 35.921875 124.75 C 27.328125 145.476562 0.046875 163.703125 0.046875 187.546875 C 0.046875 211.386719 27.316406 229.589844 35.921875 250.339844 C 44.828125 271.816406 38.761719 303.933594 54.953125 320.125 C 71.148438 336.316406 103.261719 330.25 124.738281 339.160156 C 145.464844 347.75 163.703125 375.046875 187.546875 375.046875 C 211.386719 375.046875 229.589844 347.773438 250.339844 339.160156 C 271.816406 330.25 303.933594 336.316406 320.125 320.125 C 336.316406 303.933594 330.25 271.816406 339.160156 250.339844 C 347.75 229.613281 375.046875 211.375 375.046875 187.546875 C 375.046875 163.714844 347.773438 145.5 339.160156 124.75 C 330.25 103.261719 336.316406 71.148438 320.125 54.953125 C 303.933594 38.761719 271.816406 44.828125 250.339844 35.921875 C 229.613281 27.328125 211.375 0.046875 187.546875 0.046875 Z M 187.546875 0.0898438 " fill-opacity="1" fill-rule="nonzero"/><path fill="#f59b14" d="M 286.625 187.523438 C 286.625 189.195312 286.582031 190.867188 286.5 192.539062 C 286.417969 194.210938 286.296875 195.878906 286.132812 197.542969 C 285.96875 199.207031 285.765625 200.867188 285.519531 202.523438 C 285.273438 204.175781 284.988281 205.824219 284.660156 207.464844 C 284.335938 209.105469 283.96875 210.738281 283.5625 212.363281 C 283.15625 213.984375 282.707031 215.597656 282.222656 217.199219 C 281.738281 218.796875 281.210938 220.386719 280.648438 221.960938 C 280.085938 223.539062 279.484375 225.097656 278.84375 226.644531 C 278.203125 228.1875 277.523438 229.71875 276.808594 231.230469 C 276.09375 232.742188 275.34375 234.238281 274.554688 235.710938 C 273.765625 237.1875 272.941406 238.644531 272.082031 240.078125 C 271.222656 241.511719 270.324219 242.925781 269.398438 244.316406 C 268.46875 245.707031 267.503906 247.074219 266.507812 248.417969 C 265.511719 249.761719 264.480469 251.082031 263.421875 252.375 C 262.359375 253.667969 261.265625 254.933594 260.144531 256.175781 C 259.019531 257.414062 257.867188 258.625 256.683594 259.808594 C 255.5 260.992188 254.289062 262.144531 253.050781 263.269531 C 251.808594 264.390625 250.542969 265.484375 249.25 266.546875 C 247.957031 267.605469 246.636719 268.636719 245.292969 269.632812 C 243.949219 270.628906 242.582031 271.59375 241.191406 272.523438 C 239.800781 273.449219 238.386719 274.347656 236.953125 275.207031 C 235.519531 276.066406 234.0625 276.890625 232.585938 277.679688 C 231.113281 278.46875 229.617188 279.21875 228.105469 279.933594 C 226.59375 280.652344 225.0625 281.328125 223.519531 281.96875 C 221.972656 282.609375 220.414062 283.210938 218.835938 283.773438 C 217.261719 284.335938 215.671875 284.863281 214.074219 285.347656 C 212.472656 285.832031 210.859375 286.28125 209.238281 286.6875 C 207.613281 287.09375 205.980469 287.460938 204.339844 287.785156 C 202.699219 288.113281 201.050781 288.398438 199.398438 288.644531 C 197.742188 288.890625 196.082031 289.09375 194.417969 289.257812 C 192.753906 289.421875 191.085938 289.542969 189.414062 289.625 C 187.742188 289.707031 186.070312 289.75 184.398438 289.75 C 182.726562 289.75 181.050781 289.707031 179.382812 289.625 C 177.710938 289.542969 176.042969 289.421875 174.378906 289.257812 C 172.710938 289.09375 171.054688 288.890625 169.398438 288.644531 C 167.742188 288.398438 166.09375 288.113281 164.453125 287.785156 C 162.8125 287.460938 161.179688 287.09375 159.558594 286.6875 C 157.9375 286.28125 156.324219 285.832031 154.722656 285.347656 C 153.121094 284.863281 151.535156 284.335938 149.957031 283.773438 C 148.382812 283.210938 146.824219 282.609375 145.277344 281.96875 C 143.730469 281.328125 142.203125 280.652344 140.691406 279.933594 C 139.175781 279.21875 137.683594 278.46875 136.207031 277.679688 C 134.734375 276.890625 133.277344 276.066406 131.84375 275.207031 C 130.40625 274.347656 128.996094 273.449219 127.601562 272.523438 C 126.210938 271.59375 124.84375 270.628906 123.5 269.632812 C 122.15625 268.636719 120.839844 267.605469 119.546875 266.546875 C 118.253906 265.484375 116.984375 264.390625 115.746094 263.269531 C 114.507812 262.144531 113.296875 260.992188 112.113281 259.808594 C 110.929688 258.625 109.777344 257.414062 108.652344 256.175781 C 107.527344 254.933594 106.4375 253.667969 105.375 252.375 C 104.3125 251.082031 103.285156 249.761719 102.289062 248.417969 C 101.292969 247.074219 100.328125 245.707031 99.398438 244.316406 C 98.46875 242.925781 97.574219 241.511719 96.714844 240.078125 C 95.855469 238.644531 95.03125 237.1875 94.242188 235.710938 C 93.453125 234.238281 92.699219 232.742188 91.984375 231.230469 C 91.269531 229.71875 90.59375 228.1875 89.953125 226.644531 C 89.3125 225.097656 88.710938 223.539062 88.144531 221.960938 C 87.582031 220.386719 87.058594 218.796875 86.574219 217.199219 C 86.085938 215.597656 85.640625 213.984375 85.234375 212.363281 C 84.828125 210.738281 84.460938 209.105469 84.132812 207.464844 C 83.808594 205.824219 83.523438 204.175781 83.277344 202.523438 C 83.03125 200.867188 82.828125 199.207031 82.664062 197.542969 C 82.5 195.878906 82.375 194.210938 82.292969 192.539062 C 82.210938 190.867188 82.171875 189.195312 82.171875 187.523438 C 82.171875 185.851562 82.210938 184.175781 82.292969 182.507812 C 82.375 180.835938 82.5 179.167969 82.664062 177.503906 C 82.828125 175.835938 83.03125 174.179688 83.277344 172.523438 C 83.523438 170.867188 83.808594 169.21875 84.132812 167.578125 C 84.460938 165.9375 84.828125 164.304688 85.234375 162.683594 C 85.640625 161.0625 86.085938 159.449219 86.574219 157.847656 C 87.058594 156.246094 87.582031 154.660156 88.144531 153.082031 C 88.710938 151.507812 89.3125 149.949219 89.953125 148.402344 C 90.59375 146.855469 91.269531 145.328125 91.984375 143.816406 C 92.699219 142.300781 93.453125 140.808594 94.242188 139.332031 C 95.03125 137.859375 95.855469 136.402344 96.714844 134.96875 C 97.574219 133.53125 98.46875 132.121094 99.398438 130.726562 C 100.328125 129.335938 101.292969 127.96875 102.289062 126.625 C 103.285156 125.28125 104.3125 123.964844 105.375 122.671875 C 106.4375 121.378906 107.527344 120.109375 108.652344 118.871094 C 109.777344 117.632812 110.929688 116.421875 112.113281 115.238281 C 113.296875 114.054688 114.507812 112.902344 115.746094 111.777344 C 116.984375 110.652344 118.253906 109.5625 119.546875 108.5 C 120.839844 107.4375 122.15625 106.410156 123.5 105.414062 C 124.84375 104.417969 126.210938 103.453125 127.601562 102.523438 C 128.996094 101.59375 130.40625 100.699219 131.84375 99.839844 C 133.277344 98.980469 134.734375 98.15625 136.207031 97.367188 C 137.683594 96.578125 139.175781 95.824219 140.691406 95.109375 C 142.203125 94.394531 143.730469 93.71875 145.277344 93.078125 C 146.824219 92.4375 148.382812 91.835938 149.957031 91.269531 C 151.535156 90.707031 153.121094 90.183594 154.722656 89.699219 C 156.324219 89.210938 157.9375 88.765625 159.558594 88.359375 C 161.179688 87.953125 162.8125 87.585938 164.453125 87.257812 C 166.09375 86.933594 167.742188 86.648438 169.398438 86.402344 C 171.054688 86.15625 172.710938 85.953125 174.378906 85.789062 C 176.042969 85.625 177.710938 85.5 179.382812 85.417969 C 181.050781 85.335938 182.726562 85.296875 184.398438 85.296875 C 186.070312 85.296875 187.742188 85.335938 189.414062 85.417969 C 191.085938 85.5 192.753906 85.625 194.417969 85.789062 C 196.082031 85.953125 197.742188 86.15625 199.398438 86.402344 C 201.050781 86.648438 202.699219 86.933594 204.339844 87.257812 C 205.980469 87.585938 207.613281 87.953125 209.238281 88.359375 C 210.859375 88.765625 212.472656 89.210938 214.074219 89.699219 C 215.671875 90.183594 217.261719 90.707031 218.835938 91.269531 C 220.414062 91.835938 221.972656 92.4375 223.519531 93.078125 C 225.0625 93.71875 226.59375 94.394531 228.105469 95.109375 C 229.617188 95.824219 231.113281 96.578125 232.585938 97.367188 C 234.0625 98.15625 235.519531 98.980469 236.953125 99.839844 C 238.386719 100.699219 239.800781 101.59375 241.191406 102.523438 C 242.582031 103.453125 243.949219 104.417969 245.292969 105.414062 C 246.636719 106.410156 247.957031 107.4375 249.25 108.5 C 250.542969 109.5625 251.808594 110.652344 253.050781 111.777344 C 254.289062 112.902344 255.5 114.054688 256.683594 115.238281 C 257.867188 116.421875 259.019531 117.632812 260.144531 118.871094 C 261.265625 120.109375 262.359375 121.378906 263.421875 122.671875 C 264.480469 123.964844 265.511719 125.28125 266.507812 126.625 C 267.503906 127.96875 268.46875 129.335938 269.398438 130.726562 C 270.324219 132.121094 271.222656 133.53125 272.082031 134.96875 C 272.941406 136.402344 273.765625 137.859375 274.554688 139.332031 C 275.34375 140.808594 276.09375 142.300781 276.808594 143.816406 C 277.523438 145.328125 278.203125 146.855469 278.84375 148.402344 C 279.484375 149.949219 280.085938 151.507812 280.648438 153.082031 C 281.210938 154.660156 281.738281 156.246094 282.222656 157.847656 C 282.707031 159.449219 283.15625 161.0625 283.5625 162.683594 C 283.96875 164.304688 284.335938 165.9375 284.660156 167.578125 C 284.988281 169.21875 285.273438 170.867188 285.519531 172.523438 C 285.765625 174.179688 285.96875 175.835938 286.132812 177.503906 C 286.296875 179.167969 286.417969 180.835938 286.5 182.507812 C 286.582031 184.175781 286.625 185.851562 286.625 187.523438 Z M 286.625 187.523438 " fill-opacity="1" fill-rule="nonzero"/><path fill="#fdfcad" d="M 184.398438 88.863281 C 186.011719 88.863281 187.625 88.90625 189.238281 88.984375 C 190.851562 89.066406 192.460938 89.183594 194.066406 89.34375 C 195.675781 89.503906 197.277344 89.699219 198.875 89.9375 C 200.472656 90.175781 202.0625 90.453125 203.644531 90.769531 C 205.230469 91.082031 206.804688 91.4375 208.371094 91.832031 C 209.9375 92.222656 211.492188 92.65625 213.035156 93.125 C 214.582031 93.59375 216.113281 94.101562 217.632812 94.644531 C 219.152344 95.191406 220.660156 95.773438 222.152344 96.390625 C 223.644531 97.007812 225.117188 97.664062 226.578125 98.355469 C 228.035156 99.046875 229.476562 99.773438 230.902344 100.535156 C 232.324219 101.296875 233.730469 102.09375 235.113281 102.921875 C 236.5 103.753906 237.863281 104.617188 239.203125 105.515625 C 240.546875 106.414062 241.867188 107.34375 243.164062 108.304688 C 244.460938 109.269531 245.730469 110.261719 246.980469 111.285156 C 248.226562 112.3125 249.449219 113.367188 250.644531 114.449219 C 251.839844 115.535156 253.007812 116.648438 254.152344 117.792969 C 255.292969 118.933594 256.40625 120.101562 257.488281 121.300781 C 258.574219 122.496094 259.625 123.71875 260.648438 124.96875 C 261.675781 126.21875 262.667969 127.488281 263.628906 128.789062 C 264.589844 130.085938 265.519531 131.40625 266.414062 132.746094 C 267.3125 134.089844 268.175781 135.453125 269.003906 136.839844 C 269.832031 138.226562 270.628906 139.628906 271.390625 141.054688 C 272.148438 142.480469 272.875 143.921875 273.566406 145.378906 C 274.253906 146.839844 274.910156 148.316406 275.527344 149.808594 C 276.144531 151.300781 276.722656 152.808594 277.265625 154.328125 C 277.8125 155.847656 278.316406 157.382812 278.785156 158.925781 C 279.253906 160.472656 279.683594 162.027344 280.074219 163.59375 C 280.464844 165.160156 280.820312 166.734375 281.132812 168.320312 C 281.449219 169.902344 281.722656 171.492188 281.960938 173.089844 C 282.195312 174.6875 282.394531 176.289062 282.550781 177.898438 C 282.707031 179.503906 282.828125 181.113281 282.90625 182.726562 C 282.984375 184.339844 283.023438 185.953125 283.023438 187.566406 C 283.023438 189.183594 282.980469 190.796875 282.902344 192.410156 C 282.824219 194.023438 282.703125 195.632812 282.542969 197.238281 C 282.386719 198.84375 282.1875 200.449219 281.949219 202.042969 C 281.710938 203.640625 281.4375 205.230469 281.121094 206.816406 C 280.804688 208.398438 280.449219 209.972656 280.058594 211.539062 C 279.664062 213.105469 279.234375 214.664062 278.765625 216.207031 C 278.296875 217.753906 277.789062 219.285156 277.246094 220.804688 C 276.699219 222.324219 276.117188 223.832031 275.5 225.324219 C 274.882812 226.8125 274.226562 228.289062 273.535156 229.75 C 272.84375 231.207031 272.117188 232.648438 271.359375 234.074219 C 270.597656 235.496094 269.800781 236.902344 268.96875 238.285156 C 268.140625 239.671875 267.273438 241.035156 266.378906 242.378906 C 265.480469 243.71875 264.550781 245.039062 263.585938 246.335938 C 262.625 247.632812 261.632812 248.90625 260.605469 250.152344 C 259.582031 251.398438 258.527344 252.621094 257.441406 253.820312 C 256.359375 255.015625 255.246094 256.183594 254.101562 257.324219 C 252.960938 258.464844 251.792969 259.578125 250.59375 260.664062 C 249.398438 261.746094 248.175781 262.800781 246.925781 263.824219 C 245.679688 264.847656 244.40625 265.839844 243.109375 266.804688 C 241.8125 267.765625 240.492188 268.695312 239.148438 269.589844 C 237.804688 270.488281 236.441406 271.351562 235.054688 272.179688 C 233.671875 273.011719 232.265625 273.804688 230.84375 274.566406 C 229.417969 275.328125 227.976562 276.050781 226.515625 276.742188 C 225.054688 277.433594 223.582031 278.085938 222.089844 278.703125 C 220.597656 279.320312 219.089844 279.902344 217.570312 280.445312 C 216.050781 280.988281 214.515625 281.496094 212.972656 281.964844 C 211.425781 282.429688 209.871094 282.863281 208.304688 283.253906 C 206.738281 283.644531 205.160156 284 203.578125 284.3125 C 201.996094 284.628906 200.402344 284.902344 198.808594 285.140625 C 197.210938 285.375 195.605469 285.574219 194 285.730469 C 192.394531 285.890625 190.785156 286.007812 189.171875 286.085938 C 187.558594 286.164062 185.945312 286.203125 184.328125 286.203125 C 182.714844 286.203125 181.101562 286.164062 179.488281 286.085938 C 177.875 286.003906 176.265625 285.886719 174.660156 285.726562 C 173.050781 285.570312 171.449219 285.371094 169.851562 285.132812 C 168.253906 284.894531 166.664062 284.621094 165.082031 284.304688 C 163.5 283.988281 161.921875 283.636719 160.355469 283.242188 C 158.789062 282.851562 157.234375 282.417969 155.691406 281.949219 C 154.144531 281.480469 152.613281 280.972656 151.09375 280.429688 C 149.570312 279.886719 148.066406 279.304688 146.574219 278.6875 C 145.082031 278.066406 143.605469 277.414062 142.148438 276.722656 C 140.6875 276.03125 139.246094 275.304688 137.824219 274.542969 C 136.398438 273.785156 134.996094 272.988281 133.609375 272.15625 C 132.222656 271.328125 130.859375 270.460938 129.519531 269.566406 C 128.175781 268.667969 126.855469 267.738281 125.558594 266.777344 C 124.261719 265.8125 122.992188 264.820312 121.742188 263.796875 C 120.496094 262.773438 119.273438 261.71875 118.078125 260.632812 C 116.878906 259.546875 115.710938 258.433594 114.570312 257.292969 C 113.429688 256.152344 112.316406 254.980469 111.230469 253.785156 C 110.148438 252.589844 109.09375 251.367188 108.070312 250.117188 C 107.042969 248.867188 106.050781 247.597656 105.089844 246.300781 C 104.128906 245.003906 103.199219 243.683594 102.300781 242.339844 C 101.40625 240.996094 100.542969 239.632812 99.710938 238.246094 C 98.882812 236.863281 98.085938 235.457031 97.324219 234.035156 C 96.566406 232.609375 95.839844 231.167969 95.148438 229.707031 C 94.457031 228.25 93.804688 226.773438 93.1875 225.28125 C 92.570312 223.789062 91.988281 222.28125 91.445312 220.761719 C 90.902344 219.242188 90.394531 217.710938 89.925781 216.164062 C 89.457031 214.617188 89.027344 213.0625 88.636719 211.496094 C 88.242188 209.929688 87.890625 208.355469 87.574219 206.769531 C 87.261719 205.1875 86.984375 203.597656 86.746094 202 C 86.511719 200.402344 86.3125 198.800781 86.15625 197.195312 C 85.996094 195.585938 85.878906 193.976562 85.800781 192.363281 C 85.722656 190.75 85.683594 189.136719 85.683594 187.523438 C 85.683594 185.910156 85.726562 184.296875 85.804688 182.683594 C 85.886719 181.070312 86.007812 179.460938 86.167969 177.855469 C 86.328125 176.25 86.527344 174.648438 86.765625 173.050781 C 87.003906 171.453125 87.28125 169.863281 87.597656 168.28125 C 87.914062 166.699219 88.269531 165.125 88.660156 163.558594 C 89.054688 161.992188 89.488281 160.4375 89.957031 158.894531 C 90.425781 157.351562 90.933594 155.816406 91.476562 154.296875 C 92.023438 152.777344 92.605469 151.273438 93.222656 149.78125 C 93.84375 148.292969 94.496094 146.816406 95.1875 145.359375 C 95.878906 143.898438 96.605469 142.457031 97.367188 141.035156 C 98.128906 139.609375 98.925781 138.207031 99.753906 136.824219 C 100.585938 135.4375 101.449219 134.074219 102.347656 132.734375 C 103.242188 131.390625 104.171875 130.074219 105.136719 128.777344 C 106.097656 127.480469 107.089844 126.207031 108.113281 124.960938 C 109.136719 123.714844 110.191406 122.492188 111.277344 121.296875 C 112.359375 120.097656 113.472656 118.929688 114.617188 117.789062 C 115.757812 116.648438 116.925781 115.535156 118.121094 114.453125 C 119.316406 113.367188 120.539062 112.3125 121.789062 111.289062 C 123.035156 110.265625 124.308594 109.273438 125.605469 108.308594 C 126.898438 107.347656 128.21875 106.417969 129.5625 105.523438 C 130.902344 104.625 132.265625 103.761719 133.652344 102.929688 C 135.035156 102.101562 136.4375 101.304688 137.863281 100.542969 C 139.285156 99.78125 140.726562 99.054688 142.1875 98.363281 C 143.644531 97.671875 145.121094 97.019531 146.609375 96.402344 C 148.101562 95.78125 149.609375 95.199219 151.128906 94.65625 C 152.648438 94.109375 154.179688 93.605469 155.722656 93.132812 C 157.269531 92.664062 158.824219 92.234375 160.386719 91.839844 C 161.953125 91.445312 163.527344 91.09375 165.109375 90.777344 C 166.695312 90.460938 168.285156 90.183594 169.878906 89.945312 C 171.476562 89.707031 173.078125 89.507812 174.683594 89.347656 C 176.292969 89.1875 177.898438 89.066406 179.511719 88.988281 C 181.125 88.90625 182.738281 88.867188 184.351562 88.863281 M 184.351562 81.738281 C 182.621094 81.738281 180.890625 81.785156 179.160156 81.871094 C 177.433594 81.957031 175.707031 82.085938 173.984375 82.253906 C 172.261719 82.425781 170.542969 82.640625 168.832031 82.894531 C 167.121094 83.148438 165.414062 83.449219 163.71875 83.785156 C 162.019531 84.125 160.332031 84.503906 158.652344 84.925781 C 156.972656 85.347656 155.304688 85.8125 153.648438 86.316406 C 151.992188 86.820312 150.351562 87.363281 148.71875 87.949219 C 147.089844 88.53125 145.476562 89.15625 143.878906 89.820312 C 142.277344 90.484375 140.695312 91.1875 139.132812 91.925781 C 137.566406 92.667969 136.023438 93.449219 134.496094 94.265625 C 132.96875 95.082031 131.464844 95.9375 129.980469 96.828125 C 128.496094 97.71875 127.035156 98.644531 125.597656 99.609375 C 124.15625 100.570312 122.742188 101.566406 121.351562 102.601562 C 119.964844 103.632812 118.597656 104.699219 117.261719 105.796875 C 115.925781 106.894531 114.613281 108.027344 113.332031 109.191406 C 112.050781 110.355469 110.796875 111.546875 109.574219 112.773438 C 108.351562 114 107.160156 115.253906 105.996094 116.535156 C 104.835938 117.820312 103.707031 119.128906 102.609375 120.46875 C 101.511719 121.808594 100.445312 123.171875 99.417969 124.566406 C 98.386719 125.957031 97.390625 127.371094 96.429688 128.8125 C 95.46875 130.25 94.542969 131.714844 93.65625 133.199219 C 92.765625 134.683594 91.914062 136.191406 91.097656 137.71875 C 90.285156 139.246094 89.507812 140.792969 88.765625 142.359375 C 88.027344 143.921875 87.328125 145.503906 86.664062 147.105469 C 86.003906 148.707031 85.382812 150.320312 84.800781 151.949219 C 84.21875 153.582031 83.675781 155.226562 83.175781 156.882812 C 82.671875 158.539062 82.210938 160.207031 81.792969 161.886719 C 81.371094 163.566406 80.996094 165.253906 80.65625 166.953125 C 80.320312 168.652344 80.027344 170.355469 79.773438 172.070312 C 79.519531 173.78125 79.308594 175.5 79.140625 177.222656 C 78.972656 178.945312 78.84375 180.671875 78.761719 182.398438 C 78.675781 184.128906 78.636719 185.859375 78.636719 187.589844 C 78.636719 189.320312 78.679688 191.050781 78.765625 192.78125 C 78.851562 194.511719 78.980469 196.234375 79.152344 197.957031 C 79.320312 199.679688 79.535156 201.398438 79.789062 203.113281 C 80.042969 204.824219 80.339844 206.527344 80.679688 208.226562 C 81.019531 209.925781 81.398438 211.613281 81.820312 213.292969 C 82.242188 214.972656 82.703125 216.636719 83.207031 218.296875 C 83.710938 219.953125 84.253906 221.59375 84.839844 223.222656 C 85.421875 224.855469 86.046875 226.46875 86.710938 228.066406 C 87.371094 229.667969 88.074219 231.25 88.816406 232.8125 C 89.554688 234.378906 90.335938 235.921875 91.152344 237.449219 C 91.96875 238.976562 92.824219 240.480469 93.714844 241.964844 C 94.605469 243.449219 95.53125 244.910156 96.492188 246.351562 C 97.457031 247.789062 98.453125 249.203125 99.484375 250.59375 C 100.515625 251.984375 101.582031 253.347656 102.679688 254.6875 C 103.78125 256.023438 104.910156 257.332031 106.074219 258.617188 C 107.238281 259.898438 108.429688 261.152344 109.65625 262.375 C 110.878906 263.597656 112.132812 264.792969 113.417969 265.953125 C 114.699219 267.117188 116.011719 268.246094 117.351562 269.34375 C 118.6875 270.441406 120.054688 271.503906 121.445312 272.535156 C 122.835938 273.566406 124.25 274.5625 125.691406 275.523438 C 127.128906 276.484375 128.59375 277.410156 130.078125 278.300781 C 131.5625 279.1875 133.070312 280.042969 134.597656 280.855469 C 136.125 281.671875 137.667969 282.449219 139.234375 283.1875 C 140.800781 283.929688 142.382812 284.628906 143.980469 285.292969 C 145.582031 285.953125 147.195312 286.574219 148.828125 287.160156 C 150.457031 287.742188 152.101562 288.28125 153.757812 288.785156 C 155.414062 289.285156 157.082031 289.746094 158.761719 290.167969 C 160.441406 290.589844 162.128906 290.964844 163.828125 291.304688 C 165.527344 291.640625 167.230469 291.9375 168.945312 292.191406 C 170.65625 292.441406 172.375 292.65625 174.097656 292.824219 C 175.820312 292.992188 177.546875 293.121094 179.277344 293.203125 C 181.003906 293.289062 182.734375 293.328125 184.464844 293.328125 C 186.195312 293.328125 187.925781 293.285156 189.65625 293.199219 C 191.386719 293.113281 193.109375 292.988281 194.835938 292.816406 C 196.558594 292.648438 198.273438 292.433594 199.988281 292.179688 C 201.699219 291.925781 203.402344 291.628906 205.101562 291.289062 C 206.800781 290.953125 208.488281 290.574219 210.167969 290.152344 C 211.847656 289.730469 213.515625 289.269531 215.171875 288.765625 C 216.828125 288.261719 218.472656 287.71875 220.101562 287.136719 C 221.730469 286.550781 223.34375 285.929688 224.945312 285.265625 C 226.542969 284.601562 228.125 283.902344 229.691406 283.160156 C 231.253906 282.417969 232.800781 281.640625 234.328125 280.824219 C 235.855469 280.007812 237.359375 279.15625 238.84375 278.265625 C 240.328125 277.375 241.789062 276.449219 243.230469 275.484375 C 244.667969 274.523438 246.082031 273.527344 247.472656 272.496094 C 248.863281 271.464844 250.226562 270.398438 251.566406 269.300781 C 252.90625 268.203125 254.214844 267.070312 255.496094 265.90625 C 256.78125 264.746094 258.03125 263.550781 259.257812 262.328125 C 260.480469 261.101562 261.671875 259.847656 262.835938 258.566406 C 264 257.28125 265.128906 255.972656 266.226562 254.632812 C 267.324219 253.296875 268.390625 251.929688 269.417969 250.539062 C 270.449219 249.148438 271.445312 247.734375 272.410156 246.292969 C 273.371094 244.855469 274.296875 243.390625 275.183594 241.90625 C 276.074219 240.421875 276.929688 238.917969 277.742188 237.390625 C 278.558594 235.863281 279.335938 234.316406 280.078125 232.75 C 280.816406 231.1875 281.519531 229.605469 282.179688 228.003906 C 282.84375 226.40625 283.464844 224.789062 284.046875 223.160156 C 284.632812 221.53125 285.175781 219.886719 285.675781 218.230469 C 286.179688 216.574219 286.640625 214.90625 287.058594 213.226562 C 287.480469 211.546875 287.859375 209.859375 288.195312 208.160156 C 288.535156 206.460938 288.832031 204.757812 289.085938 203.042969 C 289.339844 201.332031 289.550781 199.613281 289.71875 197.890625 C 289.886719 196.167969 290.015625 194.441406 290.101562 192.714844 C 290.183594 190.984375 290.226562 189.253906 290.226562 187.523438 C 290.226562 185.789062 290.1875 184.058594 290.101562 182.328125 C 290.015625 180.597656 289.890625 178.871094 289.722656 177.148438 C 289.550781 175.425781 289.339844 173.707031 289.085938 171.992188 C 288.832031 170.28125 288.535156 168.574219 288.199219 166.875 C 287.863281 165.175781 287.484375 163.488281 287.0625 161.804688 C 286.640625 160.125 286.179688 158.457031 285.679688 156.800781 C 285.175781 155.140625 284.632812 153.496094 284.050781 151.867188 C 283.464844 150.234375 282.84375 148.621094 282.179688 147.019531 C 281.519531 145.417969 280.816406 143.835938 280.074219 142.269531 C 279.335938 140.703125 278.558594 139.15625 277.742188 137.628906 C 276.925781 136.101562 276.070312 134.597656 275.179688 133.109375 C 274.289062 131.625 273.363281 130.160156 272.402344 128.722656 C 271.441406 127.28125 270.441406 125.867188 269.410156 124.472656 C 268.378906 123.082031 267.3125 121.71875 266.214844 120.378906 C 265.117188 119.039062 263.984375 117.730469 262.820312 116.445312 C 261.660156 115.164062 260.464844 113.910156 259.238281 112.683594 C 258.015625 111.460938 256.761719 110.265625 255.476562 109.101562 C 254.195312 107.9375 252.882812 106.808594 251.542969 105.710938 C 250.203125 104.609375 248.839844 103.546875 247.449219 102.515625 C 246.058594 101.484375 244.640625 100.484375 243.199219 99.523438 C 241.761719 98.5625 240.296875 97.636719 238.8125 96.746094 C 237.324219 95.855469 235.820312 95 234.292969 94.1875 C 232.761719 93.371094 231.214844 92.589844 229.652344 91.851562 C 228.085938 91.109375 226.5 90.410156 224.902344 89.746094 C 223.300781 89.085938 221.683594 88.460938 220.054688 87.878906 C 218.421875 87.296875 216.777344 86.753906 215.121094 86.25 C 213.464844 85.75 211.792969 85.285156 210.113281 84.867188 C 208.433594 84.445312 206.746094 84.066406 205.046875 83.730469 C 203.347656 83.394531 201.640625 83.097656 199.925781 82.84375 C 198.214844 82.589844 196.496094 82.378906 194.773438 82.210938 C 193.046875 82.039062 191.320312 81.914062 189.589844 81.828125 C 187.859375 81.746094 186.128906 81.703125 184.398438 81.703125 Z M 184.351562 81.738281 " fill-opacity="1" fill-rule="nonzero"/><path fill="#fed848" d="M 221.285156 200.328125 C 220.714844 200.882812 220.308594 201.539062 220.0625 202.292969 C 219.8125 203.050781 219.753906 203.820312 219.886719 204.601562 L 226.226562 241.566406 C 226.304688 242.011719 226.316406 242.457031 226.269531 242.90625 C 226.21875 243.355469 226.109375 243.789062 225.941406 244.207031 C 225.769531 244.625 225.546875 245.011719 225.269531 245.363281 C 224.992188 245.71875 224.667969 246.03125 224.304688 246.292969 C 223.941406 246.558594 223.546875 246.769531 223.121094 246.921875 C 222.699219 247.078125 222.261719 247.171875 221.8125 247.203125 C 221.363281 247.234375 220.917969 247.207031 220.476562 247.113281 C 220.035156 247.019531 219.613281 246.871094 219.214844 246.660156 L 186.023438 229.214844 C 185.3125 228.839844 184.554688 228.648438 183.75 228.648438 C 182.945312 228.648438 182.1875 228.839844 181.476562 229.214844 L 148.285156 246.660156 C 147.886719 246.867188 147.464844 247.019531 147.023438 247.113281 C 146.582031 247.203125 146.136719 247.234375 145.6875 247.199219 C 145.238281 247.167969 144.800781 247.074219 144.375 246.921875 C 143.953125 246.765625 143.558594 246.554688 143.195312 246.292969 C 142.828125 246.027344 142.507812 245.71875 142.226562 245.363281 C 141.949219 245.007812 141.726562 244.621094 141.554688 244.207031 C 141.382812 243.789062 141.273438 243.355469 141.222656 242.90625 C 141.175781 242.460938 141.1875 242.011719 141.261719 241.566406 L 147.601562 204.601562 C 147.738281 203.820312 147.683594 203.050781 147.4375 202.292969 C 147.195312 201.539062 146.785156 200.882812 146.214844 200.328125 L 119.363281 174.191406 C 118.804688 173.660156 118.402344 173.03125 118.152344 172.304688 C 117.902344 171.574219 117.832031 170.832031 117.941406 170.066406 C 118.011719 169.546875 118.164062 169.050781 118.398438 168.582031 C 118.628906 168.109375 118.929688 167.6875 119.300781 167.316406 C 119.671875 166.945312 120.089844 166.640625 120.5625 166.40625 C 121.03125 166.171875 121.527344 166.015625 122.046875 165.941406 L 159.148438 160.558594 C 159.953125 160.441406 160.679688 160.144531 161.335938 159.664062 C 161.988281 159.179688 162.492188 158.574219 162.839844 157.839844 L 179.433594 124.214844 C 179.671875 123.722656 179.988281 123.285156 180.378906 122.898438 C 180.765625 122.511719 181.210938 122.203125 181.707031 121.96875 C 182.203125 121.738281 182.722656 121.59375 183.269531 121.535156 C 183.8125 121.480469 184.351562 121.519531 184.886719 121.648438 C 185.589844 121.808594 186.222656 122.113281 186.789062 122.566406 C 187.351562 123.015625 187.789062 123.566406 188.101562 124.214844 L 204.703125 157.839844 C 205.058594 158.554688 205.554688 159.144531 206.199219 159.613281 C 206.839844 160.078125 207.554688 160.371094 208.339844 160.488281 L 245.453125 165.875 C 246.527344 166.023438 247.445312 166.484375 248.203125 167.261719 C 248.425781 167.488281 248.621094 167.734375 248.796875 168 C 248.96875 168.261719 249.113281 168.542969 249.230469 168.835938 C 249.347656 169.128906 249.4375 169.433594 249.496094 169.742188 C 249.554688 170.054688 249.582031 170.367188 249.578125 170.683594 C 249.574219 171 249.542969 171.3125 249.476562 171.625 C 249.414062 171.933594 249.320312 172.234375 249.195312 172.523438 C 249.070312 172.816406 248.921875 173.09375 248.742188 173.355469 C 248.5625 173.617188 248.363281 173.859375 248.136719 174.078125 Z M 221.285156 200.328125 " fill-opacity="1" fill-rule="nonzero"/><g clip-path="url(#385690d308)"><g clip-path="url(#f1bb5245f0)"><g transform="matrix(1, 0, 0, 1, 108, 108)"><g clip-path="url(#b0b16adb81)"><g clip-path="url(#d5185122da)"><g clip-path="url(#05c3fc7f89)"><path fill="#f59b14" d="M 0.273438 0.273438 L 158.726562 0.273438 L 158.726562 158.726562 L 0.273438 158.726562 Z M 0.273438 0.273438 " fill-opacity="1" fill-rule="nonzero"/></g></g></g></g></g></g></svg>