<svg xmlns="http://www.w3.org/2000/svg" xmlns:xlink="http://www.w3.org/1999/xlink" width="500" zoomAndPan="magnify" viewBox="0 0 375 374.999991" height="500" preserveAspectRatio="xMidYMid meet" version="1.0"><path fill="#c476ff" d="M 363.664062 211.125 C 357.96875 215.558594 352.957031 220.65625 348.625 226.425781 C 344.289062 232.195312 340.789062 238.433594 338.121094 245.136719 C 337.003906 248.042969 335.808594 250.921875 334.535156 253.769531 C 331.683594 260.191406 329.761719 266.878906 328.765625 273.832031 C 327.773438 280.785156 327.746094 287.746094 328.683594 294.707031 C 328.832031 295.855469 328.917969 297.007812 328.9375 298.167969 C 328.953125 299.324219 328.90625 300.480469 328.792969 301.632812 C 328.679688 302.785156 328.5 303.929688 328.253906 305.058594 C 328.007812 306.191406 327.699219 307.308594 327.328125 308.402344 C 326.953125 309.5 326.519531 310.570312 326.023438 311.617188 C 325.527344 312.667969 324.976562 313.679688 324.363281 314.664062 C 323.75 315.648438 323.085938 316.59375 322.363281 317.5 C 321.644531 318.410156 320.875 319.273438 320.054688 320.089844 C 319.238281 320.910156 318.375 321.679688 317.464844 322.398438 C 316.558594 323.121094 315.613281 323.785156 314.628906 324.398438 C 313.648438 325.007812 312.632812 325.5625 311.585938 326.058594 C 310.539062 326.554688 309.464844 326.988281 308.367188 327.359375 C 307.273438 327.734375 306.15625 328.042969 305.023438 328.289062 C 303.894531 328.53125 302.75 328.710938 301.597656 328.828125 C 300.445312 328.941406 299.289062 328.988281 298.132812 328.972656 C 296.972656 328.953125 295.820312 328.867188 294.671875 328.71875 C 287.710938 327.78125 280.75 327.808594 273.796875 328.800781 C 266.84375 329.796875 260.15625 331.71875 253.734375 334.570312 C 250.898438 335.84375 248.019531 337.039062 245.101562 338.152344 C 238.398438 340.824219 232.160156 344.324219 226.394531 348.65625 C 220.625 352.992188 215.523438 358.003906 211.089844 363.699219 C 210.382812 364.578125 209.625 365.414062 208.824219 366.210938 C 208.023438 367.003906 207.175781 367.753906 206.292969 368.453125 C 205.40625 369.15625 204.484375 369.804688 203.527344 370.402344 C 202.566406 371 201.578125 371.542969 200.558594 372.03125 C 199.542969 372.515625 198.5 372.945312 197.429688 373.316406 C 196.363281 373.6875 195.28125 374 194.179688 374.25 C 193.078125 374.5 191.964844 374.6875 190.84375 374.8125 C 189.71875 374.9375 188.59375 375 187.464844 375 C 186.335938 375 185.210938 374.9375 184.085938 374.8125 C 182.964844 374.6875 181.851562 374.5 180.75 374.25 C 179.648438 374 178.566406 373.6875 177.5 373.316406 C 176.433594 372.945312 175.390625 372.515625 174.371094 372.03125 C 173.351562 371.542969 172.363281 371 171.40625 370.402344 C 170.445312 369.804688 169.523438 369.15625 168.636719 368.453125 C 167.753906 367.753906 166.910156 367.003906 166.105469 366.210938 C 165.304688 365.414062 164.546875 364.578125 163.839844 363.699219 C 159.40625 358.003906 154.308594 352.992188 148.539062 348.65625 C 142.769531 344.324219 136.53125 340.824219 129.828125 338.152344 C 126.921875 337.039062 124.042969 335.84375 121.195312 334.570312 C 114.769531 331.714844 108.078125 329.792969 101.121094 328.796875 C 94.160156 327.804688 87.199219 327.777344 80.234375 328.71875 C 79.085938 328.867188 77.929688 328.953125 76.773438 328.972656 C 75.613281 328.988281 74.457031 328.941406 73.304688 328.828125 C 72.152344 328.710938 71.011719 328.53125 69.878906 328.289062 C 68.746094 328.042969 67.632812 327.734375 66.535156 327.359375 C 65.4375 326.988281 64.367188 326.554688 63.320312 326.058594 C 62.273438 325.5625 61.257812 325.007812 60.273438 324.398438 C 59.289062 323.785156 58.34375 323.121094 57.4375 322.398438 C 56.53125 321.679688 55.667969 320.910156 54.847656 320.089844 C 54.027344 319.273438 53.257812 318.410156 52.539062 317.5 C 51.820312 316.59375 51.152344 315.648438 50.542969 314.664062 C 49.929688 313.679688 49.375 312.667969 48.878906 311.617188 C 48.382812 310.570312 47.949219 309.5 47.578125 308.402344 C 47.203125 307.308594 46.894531 306.191406 46.652344 305.058594 C 46.40625 303.929688 46.226562 302.785156 46.113281 301.632812 C 45.996094 300.480469 45.949219 299.324219 45.96875 298.167969 C 45.984375 297.007812 46.070312 295.855469 46.222656 294.707031 C 47.167969 287.75 47.148438 280.792969 46.167969 273.839844 C 45.183594 266.886719 43.269531 260.199219 40.429688 253.777344 C 39.15625 250.941406 37.960938 248.0625 36.847656 245.144531 C 34.175781 238.441406 30.675781 232.207031 26.34375 226.4375 C 22.007812 220.667969 16.996094 215.566406 11.300781 211.132812 C 10.421875 210.425781 9.585938 209.667969 8.789062 208.867188 C 7.996094 208.066406 7.246094 207.222656 6.546875 206.335938 C 5.84375 205.449219 5.195312 204.527344 4.597656 203.570312 C 4 202.609375 3.457031 201.621094 2.96875 200.605469 C 2.484375 199.585938 2.054688 198.542969 1.683594 197.476562 C 1.3125 196.410156 1 195.324219 0.75 194.222656 C 0.5 193.121094 0.3125 192.007812 0.1875 190.886719 C 0.0625 189.765625 0 188.636719 0 187.507812 C 0 186.378906 0.0625 185.253906 0.1875 184.128906 C 0.3125 183.007812 0.5 181.894531 0.75 180.792969 C 1 179.691406 1.3125 178.609375 1.683594 177.542969 C 2.054688 176.476562 2.484375 175.433594 2.96875 174.414062 C 3.457031 173.394531 4 172.40625 4.597656 171.449219 C 5.195312 170.488281 5.84375 169.566406 6.546875 168.683594 C 7.246094 167.796875 7.996094 166.953125 8.789062 166.148438 C 9.585938 165.347656 10.421875 164.59375 11.300781 163.882812 C 16.996094 159.453125 22.007812 154.351562 26.34375 148.582031 C 30.675781 142.8125 34.175781 136.574219 36.847656 129.871094 C 37.960938 126.964844 39.15625 124.085938 40.429688 121.238281 C 43.289062 114.808594 45.214844 108.109375 46.207031 101.140625 C 47.203125 94.175781 47.226562 87.207031 46.28125 80.234375 C 46.132812 79.085938 46.046875 77.929688 46.027344 76.773438 C 46.011719 75.613281 46.058594 74.457031 46.171875 73.304688 C 46.289062 72.152344 46.46875 71.011719 46.710938 69.878906 C 46.957031 68.746094 47.265625 67.632812 47.640625 66.535156 C 48.011719 65.4375 48.445312 64.367188 48.941406 63.320312 C 49.4375 62.273438 49.992188 61.257812 50.601562 60.273438 C 51.214844 59.289062 51.878906 58.34375 52.601562 57.4375 C 53.320312 56.53125 54.089844 55.667969 54.910156 54.847656 C 55.726562 54.027344 56.589844 53.257812 57.5 52.539062 C 58.40625 51.820312 59.351562 51.152344 60.335938 50.542969 C 61.320312 49.929688 62.332031 49.375 63.378906 48.878906 C 64.429688 48.382812 65.5 47.949219 66.597656 47.578125 C 67.691406 47.203125 68.808594 46.894531 69.941406 46.652344 C 71.070312 46.40625 72.214844 46.226562 73.367188 46.113281 C 74.519531 45.996094 75.675781 45.949219 76.832031 45.96875 C 77.992188 45.984375 79.144531 46.070312 80.292969 46.222656 C 87.25 47.167969 94.207031 47.148438 101.160156 46.167969 C 108.113281 45.183594 114.800781 43.269531 121.222656 40.429688 C 124.050781 39.15625 126.929688 37.960938 129.855469 36.847656 C 136.558594 34.175781 142.792969 30.675781 148.5625 26.34375 C 154.332031 22.007812 159.433594 16.996094 163.867188 11.300781 C 164.574219 10.421875 165.332031 9.585938 166.132812 8.789062 C 166.933594 7.996094 167.777344 7.246094 168.664062 6.546875 C 169.550781 5.84375 170.472656 5.195312 171.429688 4.597656 C 172.390625 4 173.378906 3.457031 174.394531 2.96875 C 175.414062 2.484375 176.457031 2.054688 177.523438 1.683594 C 178.589844 1.3125 179.675781 1 180.777344 0.75 C 181.878906 0.5 182.992188 0.3125 184.113281 0.1875 C 185.234375 0.0625 186.363281 0 187.492188 0 C 188.621094 0 189.746094 0.0625 190.871094 0.1875 C 191.992188 0.3125 193.105469 0.5 194.207031 0.75 C 195.308594 1 196.390625 1.3125 197.457031 1.683594 C 198.523438 2.054688 199.566406 2.484375 200.585938 2.96875 C 201.605469 3.457031 202.59375 4 203.550781 4.597656 C 204.511719 5.195312 205.433594 5.84375 206.316406 6.546875 C 207.203125 7.246094 208.046875 7.996094 208.851562 8.789062 C 209.652344 9.585938 210.40625 10.421875 211.117188 11.300781 C 215.546875 16.996094 220.648438 22.007812 226.417969 26.34375 C 232.1875 30.675781 238.425781 34.175781 245.128906 36.847656 C 248.035156 37.960938 250.914062 39.15625 253.761719 40.429688 C 260.183594 43.28125 266.867188 45.203125 273.824219 46.199219 C 280.777344 47.191406 287.734375 47.21875 294.699219 46.28125 C 295.847656 46.132812 297 46.046875 298.15625 46.027344 C 299.316406 46.011719 300.472656 46.058594 301.625 46.171875 C 302.777344 46.289062 303.917969 46.46875 305.050781 46.710938 C 306.183594 46.957031 307.296875 47.265625 308.394531 47.640625 C 309.492188 48.011719 310.5625 48.445312 311.609375 48.941406 C 312.65625 49.4375 313.671875 49.992188 314.65625 50.601562 C 315.640625 51.214844 316.585938 51.878906 317.492188 52.601562 C 318.398438 53.320312 319.261719 54.089844 320.082031 54.910156 C 320.902344 55.726562 321.671875 56.589844 322.390625 57.5 C 323.109375 58.40625 323.777344 59.351562 324.390625 60.335938 C 325 61.320312 325.554688 62.332031 326.050781 63.378906 C 326.546875 64.429688 326.980469 65.5 327.351562 66.597656 C 327.726562 67.691406 328.035156 68.808594 328.277344 69.941406 C 328.523438 71.070312 328.703125 72.214844 328.816406 73.367188 C 328.933594 74.519531 328.980469 75.675781 328.960938 76.832031 C 328.945312 77.992188 328.859375 79.144531 328.710938 80.292969 C 327.769531 87.253906 327.796875 94.214844 328.792969 101.167969 C 329.785156 108.121094 331.710938 114.808594 334.5625 121.230469 C 335.835938 124.0625 337.027344 126.9375 338.144531 129.863281 C 340.816406 136.566406 344.316406 142.804688 348.648438 148.574219 C 352.980469 154.34375 357.996094 159.441406 363.6875 163.875 C 364.570312 164.582031 365.40625 165.339844 366.199219 166.140625 C 366.996094 166.945312 367.742188 167.789062 368.445312 168.671875 C 369.144531 169.558594 369.796875 170.480469 370.394531 171.4375 C 370.992188 172.398438 371.535156 173.386719 372.019531 174.40625 C 372.507812 175.425781 372.9375 176.464844 373.308594 177.535156 C 373.679688 178.601562 373.992188 179.683594 374.242188 180.785156 C 374.492188 181.886719 374.679688 183 374.804688 184.121094 C 374.929688 185.246094 374.992188 186.371094 374.992188 187.5 C 374.992188 188.628906 374.929688 189.753906 374.804688 190.878906 C 374.679688 192 374.492188 193.113281 374.242188 194.214844 C 373.992188 195.316406 373.679688 196.398438 373.308594 197.464844 C 372.9375 198.535156 372.507812 199.574219 372.019531 200.59375 C 371.535156 201.613281 370.992188 202.601562 370.394531 203.5625 C 369.796875 204.519531 369.144531 205.441406 368.445312 206.328125 C 367.742188 207.210938 366.996094 208.054688 366.199219 208.859375 C 365.40625 209.660156 364.570312 210.417969 363.6875 211.125 Z M 363.664062 211.125 " fill-opacity="1" fill-rule="nonzero"/><path fill="#4b0082" d="M 305.234375 187.5 C 305.234375 189.425781 305.183594 191.351562 305.089844 193.277344 C 304.996094 195.203125 304.855469 197.121094 304.664062 199.039062 C 304.476562 200.957031 304.242188 202.867188 303.957031 204.773438 C 303.675781 206.679688 303.347656 208.578125 302.96875 210.46875 C 302.59375 212.359375 302.171875 214.238281 301.703125 216.105469 C 301.234375 217.976562 300.722656 219.832031 300.164062 221.675781 C 299.605469 223.519531 299 225.347656 298.351562 227.164062 C 297.699219 228.976562 297.007812 230.773438 296.269531 232.554688 C 295.535156 234.335938 294.753906 236.09375 293.929688 237.835938 C 293.105469 239.578125 292.238281 241.300781 291.332031 243 C 290.421875 244.699219 289.472656 246.375 288.484375 248.027344 C 287.492188 249.679688 286.460938 251.304688 285.390625 252.910156 C 284.320312 254.511719 283.210938 256.085938 282.0625 257.632812 C 280.914062 259.179688 279.730469 260.699219 278.507812 262.1875 C 277.285156 263.679688 276.027344 265.136719 274.734375 266.5625 C 273.441406 267.992188 272.113281 269.386719 270.75 270.75 C 269.386719 272.113281 267.992188 273.441406 266.5625 274.734375 C 265.136719 276.027344 263.679688 277.285156 262.1875 278.507812 C 260.699219 279.730469 259.179688 280.914062 257.632812 282.0625 C 256.085938 283.210938 254.511719 284.320312 252.910156 285.390625 C 251.304688 286.460938 249.679688 287.492188 248.027344 288.484375 C 246.375 289.472656 244.699219 290.421875 243 291.332031 C 241.300781 292.238281 239.578125 293.105469 237.835938 293.929688 C 236.09375 294.753906 234.335938 295.535156 232.554688 296.269531 C 230.773438 297.007812 228.976562 297.699219 227.164062 298.351562 C 225.347656 299 223.519531 299.605469 221.675781 300.164062 C 219.832031 300.722656 217.976562 301.234375 216.105469 301.703125 C 214.238281 302.171875 212.359375 302.59375 210.46875 302.96875 C 208.578125 303.347656 206.679688 303.675781 204.773438 303.957031 C 202.867188 304.242188 200.957031 304.476562 199.039062 304.664062 C 197.121094 304.855469 195.203125 304.996094 193.277344 305.089844 C 191.351562 305.183594 189.425781 305.234375 187.5 305.234375 C 185.574219 305.234375 183.648438 305.183594 181.722656 305.089844 C 179.796875 304.996094 177.878906 304.855469 175.960938 304.664062 C 174.042969 304.476562 172.132812 304.242188 170.226562 303.957031 C 168.320312 303.675781 166.421875 303.347656 164.53125 302.96875 C 162.640625 302.59375 160.761719 302.171875 158.894531 301.703125 C 157.023438 301.234375 155.167969 300.722656 153.324219 300.164062 C 151.480469 299.605469 149.652344 299 147.835938 298.351562 C 146.023438 297.699219 144.226562 297.007812 142.445312 296.269531 C 140.664062 295.535156 138.90625 294.753906 137.164062 293.929688 C 135.421875 293.105469 133.699219 292.238281 132 291.332031 C 130.300781 290.421875 128.625 289.472656 126.972656 288.484375 C 125.320312 287.492188 123.691406 286.460938 122.089844 285.390625 C 120.488281 284.320312 118.914062 283.210938 117.367188 282.0625 C 115.820312 280.914062 114.300781 279.730469 112.8125 278.507812 C 111.320312 277.285156 109.863281 276.027344 108.4375 274.734375 C 107.007812 273.441406 105.613281 272.113281 104.25 270.75 C 102.886719 269.386719 101.558594 267.992188 100.265625 266.5625 C 98.972656 265.136719 97.714844 263.679688 96.492188 262.1875 C 95.269531 260.699219 94.085938 259.179688 92.9375 257.632812 C 91.789062 256.085938 90.679688 254.511719 89.609375 252.910156 C 88.539062 251.304688 87.507812 249.679688 86.515625 248.027344 C 85.527344 246.375 84.578125 244.699219 83.667969 243 C 82.761719 241.300781 81.894531 239.578125 81.070312 237.835938 C 80.246094 236.09375 79.464844 234.335938 78.730469 232.554688 C 77.992188 230.773438 77.296875 228.976562 76.648438 227.164062 C 76 225.347656 75.394531 223.519531 74.835938 221.675781 C 74.277344 219.832031 73.765625 217.976562 73.296875 216.105469 C 72.828125 214.238281 72.40625 212.359375 72.03125 210.46875 C 71.652344 208.578125 71.324219 206.679688 71.042969 204.773438 C 70.757812 202.867188 70.523438 200.957031 70.335938 199.039062 C 70.144531 197.121094 70.003906 195.203125 69.910156 193.277344 C 69.816406 191.351562 69.765625 189.425781 69.765625 187.5 C 69.765625 185.574219 69.816406 183.648438 69.910156 181.722656 C 70.003906 179.796875 70.144531 177.878906 70.335938 175.960938 C 70.523438 174.042969 70.757812 172.132812 71.042969 170.226562 C 71.324219 168.320312 71.652344 166.421875 72.03125 164.53125 C 72.40625 162.640625 72.828125 160.761719 73.296875 158.894531 C 73.765625 157.023438 74.277344 155.167969 74.835938 153.324219 C 75.394531 151.480469 76 149.652344 76.648438 147.835938 C 77.296875 146.023438 77.992188 144.226562 78.730469 142.445312 C 79.464844 140.664062 80.246094 138.90625 81.070312 137.164062 C 81.894531 135.421875 82.761719 133.699219 83.667969 132 C 84.578125 130.300781 85.527344 128.625 86.515625 126.972656 C 87.507812 125.320312 88.539062 123.691406 89.609375 122.089844 C 90.679688 120.488281 91.789062 118.914062 92.9375 117.367188 C 94.085938 115.820312 95.269531 114.300781 96.492188 112.8125 C 97.714844 111.320312 98.972656 109.863281 100.265625 108.4375 C 101.558594 107.007812 102.886719 105.613281 104.25 104.25 C 105.613281 102.886719 107.007812 101.558594 108.4375 100.265625 C 109.863281 98.972656 111.320312 97.714844 112.8125 96.492188 C 114.300781 95.269531 115.820312 94.085938 117.367188 92.9375 C 118.914062 91.789062 120.488281 90.679688 122.089844 89.609375 C 123.691406 88.539062 125.320312 87.507812 126.972656 86.515625 C 128.625 85.527344 130.300781 84.578125 132 83.667969 C 133.699219 82.761719 135.421875 81.894531 137.164062 81.070312 C 138.90625 80.246094 140.664062 79.464844 142.445312 78.730469 C 144.226562 77.992188 146.023438 77.296875 147.835938 76.648438 C 149.652344 76 151.480469 75.394531 153.324219 74.835938 C 155.167969 74.277344 157.023438 73.765625 158.894531 73.296875 C 160.761719 72.828125 162.640625 72.40625 164.53125 72.03125 C 166.421875 71.652344 168.320312 71.324219 170.226562 71.042969 C 172.132812 70.757812 174.042969 70.523438 175.960938 70.335938 C 177.878906 70.144531 179.796875 70.003906 181.722656 69.910156 C 183.648438 69.816406 185.574219 69.765625 187.5 69.765625 C 189.425781 69.765625 191.351562 69.816406 193.277344 69.910156 C 195.203125 70.003906 197.121094 70.144531 199.039062 70.335938 C 200.957031 70.523438 202.867188 70.757812 204.773438 71.042969 C 206.679688 71.324219 208.578125 71.652344 210.46875 72.03125 C 212.359375 72.40625 214.238281 72.828125 216.105469 73.296875 C 217.976562 73.765625 219.832031 74.277344 221.675781 74.835938 C 223.519531 75.394531 225.347656 76 227.164062 76.648438 C 228.976562 77.296875 230.773438 77.992188 232.554688 78.730469 C 234.335938 79.464844 236.09375 80.246094 237.835938 81.070312 C 239.578125 81.894531 241.300781 82.761719 243 83.667969 C 244.699219 84.578125 246.375 85.527344 248.027344 86.515625 C 249.679688 87.507812 251.304688 88.539062 252.910156 89.609375 C 254.511719 90.679688 256.085938 91.789062 257.632812 92.9375 C 259.179688 94.085938 260.699219 95.269531 262.1875 96.492188 C 263.679688 97.714844 265.136719 98.972656 266.5625 100.265625 C 267.992188 101.558594 269.386719 102.886719 270.75 104.25 C 272.113281 105.613281 273.441406 107.007812 274.734375 108.4375 C 276.027344 109.863281 277.285156 111.320312 278.507812 112.8125 C 279.730469 114.300781 280.914062 115.820312 282.0625 117.367188 C 283.210938 118.914062 284.320312 120.488281 285.390625 122.089844 C 286.460938 123.691406 287.492188 125.320312 288.484375 126.972656 C 289.472656 128.625 290.421875 130.300781 291.332031 132 C 292.238281 133.699219 293.105469 135.421875 293.929688 137.164062 C 294.753906 138.90625 295.535156 140.664062 296.269531 142.445312 C 297.007812 144.226562 297.699219 146.023438 298.351562 147.835938 C 299 149.652344 299.605469 151.480469 300.164062 153.324219 C 300.722656 155.167969 301.234375 157.023438 301.703125 158.894531 C 302.171875 160.761719 302.59375 162.640625 302.96875 164.53125 C 303.347656 166.421875 303.675781 168.320312 303.957031 170.226562 C 304.242188 172.132812 304.476562 174.042969 304.664062 175.960938 C 304.855469 177.878906 304.996094 179.796875 305.089844 181.722656 C 305.183594 183.648438 305.234375 185.574219 305.234375 187.5 Z M 305.234375 187.5 " fill-opacity="1" fill-rule="nonzero"/><path fill="#4b0082" d="M 230.398438 198.835938 C 229.511719 199.480469 228.75 200.246094 228.105469 201.128906 C 227.464844 202.015625 226.972656 202.976562 226.636719 204.015625 C 226.296875 205.054688 226.128906 206.125 226.125 207.21875 C 226.125 208.3125 226.292969 209.378906 226.628906 210.417969 L 237.210938 243 C 237.546875 244.039062 237.714844 245.105469 237.714844 246.199219 C 237.714844 247.292969 237.546875 248.359375 237.210938 249.398438 C 236.871094 250.4375 236.382812 251.402344 235.738281 252.285156 C 235.097656 253.171875 234.332031 253.933594 233.449219 254.578125 C 232.5625 255.21875 231.601562 255.710938 230.5625 256.046875 C 229.523438 256.382812 228.453125 256.554688 227.363281 256.550781 C 226.269531 256.550781 225.203125 256.382812 224.160156 256.042969 C 223.121094 255.707031 222.160156 255.214844 221.277344 254.574219 L 193.605469 234.453125 C 192.71875 233.808594 191.753906 233.316406 190.710938 232.976562 C 189.667969 232.636719 188.597656 232.464844 187.5 232.464844 C 186.402344 232.464844 185.332031 232.636719 184.289062 232.976562 C 183.246094 233.316406 182.28125 233.808594 181.394531 234.453125 L 153.707031 254.574219 C 152.820312 255.210938 151.859375 255.699219 150.820312 256.035156 C 149.785156 256.371094 148.71875 256.539062 147.628906 256.535156 C 146.535156 256.535156 145.472656 256.363281 144.433594 256.027344 C 143.394531 255.6875 142.433594 255.199219 141.550781 254.558594 C 140.671875 253.914062 139.90625 253.152344 139.265625 252.269531 C 138.625 251.386719 138.136719 250.425781 137.796875 249.386719 C 137.460938 248.351562 137.289062 247.285156 137.289062 246.195312 C 137.289062 245.101562 137.453125 244.039062 137.789062 243 L 148.371094 210.445312 C 148.707031 209.402344 148.875 208.335938 148.875 207.242188 C 148.871094 206.148438 148.703125 205.082031 148.363281 204.042969 C 148.027344 203.003906 147.535156 202.039062 146.894531 201.15625 C 146.25 200.269531 145.488281 199.507812 144.601562 198.863281 L 116.914062 178.777344 C 116.027344 178.136719 115.265625 177.371094 114.621094 176.488281 C 113.980469 175.601562 113.492188 174.640625 113.152344 173.597656 C 112.816406 172.558594 112.648438 171.492188 112.648438 170.398438 C 112.648438 169.304688 112.820312 168.238281 113.160156 167.199219 C 113.5 166.160156 113.988281 165.195312 114.632812 164.3125 C 115.277344 163.429688 116.042969 162.664062 116.925781 162.023438 C 117.8125 161.382812 118.777344 160.894531 119.816406 160.558594 C 120.855469 160.222656 121.925781 160.054688 123.015625 160.054688 L 157.246094 160.054688 C 158.339844 160.054688 159.40625 159.882812 160.445312 159.546875 C 161.488281 159.207031 162.449219 158.71875 163.332031 158.074219 C 164.21875 157.429688 164.980469 156.667969 165.621094 155.78125 C 166.265625 154.898438 166.753906 153.933594 167.09375 152.894531 L 177.652344 120.347656 C 177.992188 119.308594 178.480469 118.347656 179.125 117.460938 C 179.765625 116.578125 180.53125 115.8125 181.414062 115.171875 C 182.296875 114.527344 183.261719 114.039062 184.300781 113.699219 C 185.339844 113.363281 186.40625 113.195312 187.5 113.195312 C 188.59375 113.195312 189.660156 113.363281 190.699219 113.699219 C 191.738281 114.039062 192.703125 114.527344 193.585938 115.171875 C 194.46875 115.8125 195.234375 116.578125 195.875 117.460938 C 196.519531 118.347656 197.007812 119.308594 197.347656 120.347656 L 207.925781 152.902344 C 208.261719 153.945312 208.753906 154.90625 209.394531 155.792969 C 210.039062 156.675781 210.800781 157.441406 211.683594 158.082031 C 212.570312 158.726562 213.53125 159.214844 214.570312 159.554688 C 215.609375 159.894531 216.675781 160.0625 217.769531 160.0625 L 252.035156 160.0625 C 253.128906 160.0625 254.195312 160.230469 255.234375 160.566406 C 256.277344 160.902344 257.238281 161.390625 258.125 162.03125 C 259.011719 162.675781 259.773438 163.4375 260.417969 164.320312 C 261.0625 165.207031 261.554688 166.167969 261.894531 167.207031 C 262.230469 168.246094 262.402344 169.3125 262.402344 170.40625 C 262.402344 171.5 262.234375 172.566406 261.898438 173.609375 C 261.5625 174.648438 261.070312 175.609375 260.429688 176.496094 C 259.789062 177.378906 259.023438 178.144531 258.140625 178.789062 Z M 230.398438 198.835938 " fill-opacity="1" fill-rule="nonzero"/></svg>